{"glyphs":{"0":{"ha":717,"x_min":0,"x_max":0,"o":"m 358 1013 b 0 507 160 1013 0 786 b 358 3 0 229 160 3 b 717 507 556 3 717 229 b 358 1013 717 786 556 1013 z m 358 35 b 129 507 232 35 129 247 b 358 981 129 768 232 981 b 586 507 483 981 586 768 b 358 35 586 247 483 35 z "},"1":{"ha":304,"x_min":0,"x_max":0,"o":"m 304 264 l 304 1013 l 296 1013 l 272 1013 l 249 1013 l 0 764 l 24 740 l 175 892 l 175 35 l 174 35 l 174 3 l 175 3 l 304 3 l 304 264 z "},"2":{"ha":535,"x_min":0,"x_max":0,"o":"m 392 100 l 260 100 l 65 100 l 360 363 b 521 751 489 492 521 606 b 260 1013 521 915 404 1013 b 32 719 131 1013 32 915 l 65 719 b 260 981 65 817 97 981 b 390 785 390 981 390 817 b 260 393 390 643 403 592 l 0 100 l 0 3 l 489 3 l 521 3 l 535 100 l 392 100 z "},"3":{"ha":567,"x_min":0,"x_max":0,"o":"m 0 231 l 33 231 b 238 56 65 133 138 56 b 446 254 367 56 446 153 b 196 524 446 400 311 496 l 196 557 b 417 761 286 574 417 650 b 272 922 417 853 361 922 b 65 785 168 922 96 867 l 33 785 b 310 1013 53 885 149 1013 b 519 824 464 1013 519 897 b 360 574 519 699 433 621 b 567 321 457 550 567 449 b 213 3 567 135 404 3 b 0 231 46 3 0 189 z "},"4":{"ha":586,"x_min":0,"x_max":0,"o":"m 586 426 l 521 426 l 521 1013 l 499 1013 l 496 1013 l 460 1013 l 0 310 l 0 303 l 0 296 l 29 296 l 392 296 l 392 3 l 521 3 l 521 296 l 586 296 l 586 426 z m 115 426 l 392 849 l 392 426 l 115 426 z "},"5":{"ha":568,"x_min":0,"x_max":0,"o":"m 147 621 l 176 882 l 535 882 l 535 981 l 400 981 l 144 981 l 144 978 l 111 589 b 438 264 226 561 438 524 b 238 56 438 163 368 56 b 33 231 138 56 65 133 l 0 231 b 242 3 0 189 75 3 b 568 296 400 3 568 68 b 147 621 568 458 438 619 z "},"6":{"ha":521,"x_min":0,"x_max":0,"o":"m 131 503 l 131 539 b 456 981 131 860 276 981 l 456 1013 b 0 432 204 1013 0 896 l 0 289 b 261 3 0 131 117 3 b 521 289 404 3 521 110 b 261 575 521 467 404 575 b 131 503 163 575 131 503 z m 131 182 l 131 396 b 261 524 131 475 189 524 b 392 361 333 524 392 458 l 392 199 b 261 39 392 119 333 39 b 131 182 189 39 131 103 z "},"7":{"ha":504,"x_min":0,"x_max":0,"o":"m 11 981 l 0 882 l 119 882 l 243 882 l 471 882 l 393 760 b 144 261 293 603 210 436 l 47 3 l 178 3 l 292 365 b 410 675 325 471 364 575 l 504 882 l 504 981 l 11 981 z "},"8":{"ha":517,"x_min":0,"x_max":0,"o":"m 507 806 b 321 553 507 681 435 632 b 517 281 422 492 517 392 b 231 3 517 154 421 3 b 4 189 108 3 4 94 b 175 522 4 326 33 415 b 0 758 68 576 0 626 b 263 1013 0 871 101 1013 b 507 806 446 1013 507 899 z m 96 788 b 278 579 96 669 172 640 b 424 782 363 632 424 692 b 254 964 424 908 332 964 b 96 788 158 964 96 907 z m 413 246 b 219 492 413 350 338 417 b 92 240 154 446 97 338 b 253 63 88 135 160 63 b 413 246 347 63 413 144 z "},"9":{"ha":521,"x_min":0,"x_max":0,"o":"m 392 513 l 392 476 b 65 35 392 156 246 35 l 65 3 b 521 583 317 3 521 119 l 521 726 b 261 1013 521 885 404 1013 b 0 726 117 1013 0 906 b 261 440 0 549 117 440 b 392 513 358 440 392 513 z m 392 833 l 392 619 b 261 492 392 540 333 492 b 131 654 189 492 131 557 l 131 817 b 261 976 131 896 189 976 b 392 833 333 976 392 913 z "}," ":{"ha":706,"x_min":0,"x_max":0,"o":""}," ":{"ha":706,"x_min":0,"x_max":0,"o":""},"!":{"ha":269,"x_min":0,"x_max":0,"o":"m 69 -4 l 200 -4 l 200 126 l 69 126 l 69 -4 z m 69 1006 l 103 257 l 168 257 l 200 1006 l 69 1006 z "},"\"":{"ha":446,"x_min":0,"x_max":0,"o":"m 157 807 b 207 1038 157 807 207 1031 l 71 1039 b 111 808 69 1035 111 808 b 157 807 110 804 156 804 z m 326 807 b 376 1038 326 807 376 1031 l 240 1039 b 281 808 240 1035 281 808 b 326 807 281 804 325 804 z "},"#":{"ha":758,"x_min":0,"x_max":0,"o":"m 689 647 l 689 778 l 526 778 l 526 1006 l 493 1006 l 461 1006 l 461 778 l 299 778 l 299 1006 l 265 1006 l 233 1006 l 233 778 l 69 778 l 69 647 l 233 647 l 233 388 l 69 388 l 69 257 l 233 257 l 233 -4 l 265 -4 l 299 -4 l 299 257 l 461 257 l 461 -4 l 493 -4 l 526 -4 l 526 257 l 689 257 l 689 388 l 526 388 l 526 647 l 689 647 z m 461 388 l 299 388 l 299 647 l 461 647 l 461 388 z "},"$":{"ha":661,"x_min":0,"x_max":0,"o":"m 428 481 l 428 857 b 526 672 493 825 526 756 l 558 672 l 558 843 b 428 899 528 869 461 890 l 428 1006 l 396 1006 l 396 906 b 326 908 369 908 344 908 b 299 906 317 908 307 907 l 299 1006 l 265 1006 l 265 897 b 103 672 171 865 103 767 b 265 424 103 539 157 478 l 265 29 b 103 232 172 50 103 143 l 69 232 l 69 61 b 265 -3 115 19 210 1 l 265 -101 l 299 -101 l 299 -4 b 331 -4 310 -4 321 -4 b 396 3 354 -4 375 -1 l 396 -101 l 428 -101 l 428 13 b 592 232 532 49 592 140 b 428 481 592 365 536 426 z m 265 571 b 200 732 200 624 200 671 b 265 860 200 790 226 836 l 265 571 z m 396 42 b 332 25 376 31 354 25 l 304 25 b 299 26 301 25 300 26 l 299 408 b 396 356 336 390 368 374 l 396 42 z m 396 496 b 299 547 356 514 324 532 l 299 874 b 332 879 308 876 319 879 b 396 871 356 879 376 876 l 396 496 z m 428 64 l 428 331 b 493 201 471 293 493 253 b 428 64 493 150 468 97 z "},"%":{"ha":972,"x_min":0,"x_max":0,"o":"m 415 729 b 239 1006 410 844 374 1006 b 69 718 121 1006 69 864 b 244 453 69 643 93 453 b 415 729 346 453 413 554 z m 172 557 b 151 717 160 593 151 647 b 175 919 151 774 153 867 b 236 967 190 953 215 967 b 329 724 317 967 329 829 b 313 546 329 643 324 583 b 244 492 297 497 265 492 b 172 557 225 492 189 513 z m 786 976 b 764 997 786 981 785 983 b 744 1006 751 1004 749 1006 b 735 994 739 1006 738 1000 l 228 10 b 221 -8 224 1 221 -4 b 239 -26 221 -15 224 -17 b 261 -39 254 -37 257 -39 b 274 -19 265 -39 268 -33 l 781 963 b 786 976 783 968 786 974 z m 728 536 b 557 256 608 536 557 397 b 733 -4 557 182 581 -4 b 903 267 835 -4 901 96 b 728 536 899 379 863 536 z m 801 88 b 733 35 786 40 754 35 b 661 97 714 35 676 56 b 639 254 647 133 639 186 b 664 451 639 310 642 400 b 724 497 678 485 704 497 b 818 260 804 497 818 363 b 801 88 818 182 813 124 z "},"&":{"ha":992,"x_min":0,"x_max":0,"o":"m 922 -10 b 669 296 835 88 682 278 b 778 479 688 319 739 408 l 726 479 b 642 326 700 426 663 358 l 408 615 b 538 838 458 647 535 760 b 368 1039 542 975 472 1039 b 178 871 243 1039 179 938 b 300 613 178 803 171 781 b 147 479 253 579 188 528 b 69 233 100 424 69 339 b 315 -26 69 64 203 -26 b 613 215 465 -26 613 215 b 792 -10 613 215 749 38 l 922 -10 z m 276 803 b 368 986 246 883 311 986 b 463 839 426 986 463 889 b 365 661 463 725 394 689 b 276 803 296 744 293 758 z m 360 63 b 165 283 269 63 168 161 b 342 568 163 404 256 510 l 582 251 b 360 63 551 207 475 63 z "},"'":{"ha":275,"x_min":0,"x_max":0,"o":"m 156 807 b 206 1038 156 807 206 1031 l 69 1039 b 110 808 69 1035 110 808 b 156 807 110 804 154 804 z "},"(":{"ha":447,"x_min":0,"x_max":0,"o":"m 265 -135 l 343 -135 b 190 458 250 11 190 200 b 378 1104 190 749 265 951 l 307 1104 b 69 485 200 974 69 778 b 265 -135 69 192 168 -4 z "},")":{"ha":446,"x_min":0,"x_max":0,"o":"m 182 -135 l 104 -135 b 257 458 196 11 257 200 b 69 1104 257 749 181 951 l 139 1104 b 376 485 246 974 376 778 b 182 -135 376 192 279 -4 z "},"*":{"ha":564,"x_min":0,"x_max":0,"o":"m 236 646 b 275 817 236 663 274 811 l 272 817 b 156 699 258 803 168 707 b 90 710 132 685 106 685 b 111 776 69 746 100 768 b 271 826 125 786 263 826 l 271 829 b 107 876 264 832 121 869 b 86 938 89 885 69 908 b 151 953 103 969 131 964 b 272 838 167 943 269 843 l 275 840 b 236 1011 274 844 236 994 b 279 1057 236 1036 249 1057 b 322 1011 313 1057 322 1040 b 283 839 322 990 286 844 l 286 836 b 407 957 290 842 393 949 b 467 940 428 968 453 967 b 450 876 486 908 471 890 b 289 829 433 867 296 829 l 289 826 b 454 778 294 825 440 785 b 469 710 471 768 494 753 b 404 700 454 685 425 688 b 286 819 389 708 289 813 l 283 817 b 322 646 286 811 322 667 b 279 596 322 625 315 596 b 236 646 249 596 236 621 z "},"+":{"ha":594,"x_min":0,"x_max":0,"o":"m 508 517 l 329 517 l 329 713 l 264 713 l 264 517 l 83 517 b 69 501 72 517 69 515 l 69 400 b 83 388 69 388 72 386 l 264 388 l 264 192 l 329 192 l 329 388 l 507 388 b 525 404 519 388 525 390 l 525 492 b 508 517 525 513 521 517 z "},",":{"ha":311,"x_min":0,"x_max":0,"o":"m 111 126 l 111 -4 l 160 -4 b 164 -21 163 -10 164 -15 b 82 -171 164 -86 110 -144 b 79 -200 72 -179 69 -200 b 242 -4 88 -200 242 -135 l 242 126 l 111 126 z "},"-":{"ha":540,"x_min":0,"x_max":0,"o":"m 69 510 b 82 526 69 524 72 526 l 457 526 b 471 500 467 526 471 521 l 471 413 b 456 396 471 399 465 396 l 82 396 b 69 407 72 393 69 396 l 69 510 z "},"­":{"ha":540,"x_min":0,"x_max":0,"o":"m 69 510 b 82 526 69 524 72 526 l 457 526 b 471 500 467 526 471 521 l 471 413 b 456 396 471 399 465 396 l 82 396 b 69 407 72 393 69 396 l 69 510 z "},".":{"ha":269,"x_min":0,"x_max":0,"o":"m 69 0 l 200 0 l 200 131 l 69 131 l 69 0 z "},"/":{"ha":599,"x_min":0,"x_max":0,"o":"m 456 1053 l 74 -18 b 71 -32 69 -25 69 -29 l 143 -32 l 528 1042 b 529 1053 529 1046 529 1049 l 456 1053 z "},":":{"ha":269,"x_min":0,"x_max":0,"o":"m 69 0 l 200 0 l 200 131 l 69 131 l 69 0 z m 69 588 l 69 457 l 200 457 l 200 588 l 69 588 z "},";":{"ha":311,"x_min":0,"x_max":0,"o":"m 111 581 l 111 450 l 242 450 l 242 581 l 111 581 z m 111 -6 l 161 -6 b 165 -22 163 -11 165 -17 b 82 -172 165 -89 110 -146 b 79 -201 72 -181 69 -201 b 242 -6 88 -201 242 -136 l 242 125 l 111 125 l 111 -6 z "},"<":{"ha":507,"x_min":0,"x_max":0,"o":"m 69 447 l 69 493 l 438 757 l 438 661 l 176 476 l 176 469 l 438 278 l 438 181 l 69 447 z "},"=":{"ha":629,"x_min":0,"x_max":0,"o":"m 69 288 l 560 288 l 560 388 l 69 388 l 69 288 z m 69 658 l 69 557 l 560 557 l 560 658 l 69 658 z "},">":{"ha":507,"x_min":0,"x_max":0,"o":"m 438 490 l 438 443 l 69 181 l 69 275 l 331 460 l 331 467 l 69 658 l 69 757 l 438 490 z "},"?":{"ha":558,"x_min":0,"x_max":0,"o":"m 126 1046 b 69 983 78 1046 69 994 b 131 910 69 942 83 908 b 358 672 272 914 358 774 b 229 563 358 572 267 563 b 131 571 208 563 157 564 b 99 536 122 574 99 553 l 139 253 b 147 242 139 244 142 242 l 169 242 b 178 253 176 242 178 246 l 178 422 b 188 435 178 431 179 435 b 489 706 254 440 489 507 b 126 1046 489 944 222 1046 z m 99 3 l 229 3 l 229 133 l 99 133 l 99 3 z "},"@":{"ha":1083,"x_min":0,"x_max":0,"o":"m 261 203 b 464 6 260 104 331 6 b 668 108 560 6 631 54 l 672 108 b 818 -46 671 -42 772 -47 b 1014 324 963 -46 1014 122 b 624 726 1014 564 826 726 b 69 189 249 726 69 539 b 536 -325 69 -53 307 -325 b 792 -243 644 -325 756 -285 l 776 -207 b 553 -267 710 -260 628 -267 b 200 156 386 -268 200 -83 b 624 660 199 383 264 669 b 917 324 781 656 917 540 b 883 54 917 190 926 115 b 786 189 872 39 793 -53 l 786 458 b 656 458 775 469 656 458 b 261 203 399 460 265 425 z m 664 371 l 664 253 b 657 213 664 240 661 225 b 496 99 638 154 582 99 b 382 217 435 99 382 136 b 664 371 382 350 532 374 z "},"A":{"ha":747,"x_min":0,"x_max":0,"o":"m 447 490 l 521 268 l 524 263 l 611 1 l 747 1 l 660 263 l 399 1044 l 378 1044 l 13 35 l 0 1 l 1 1 l 36 1 l 49 35 l 47 35 l 213 490 l 447 490 z m 335 829 l 436 522 l 224 522 l 335 829 z "},"B":{"ha":618,"x_min":0,"x_max":0,"o":"m 413 546 b 553 767 496 585 553 669 b 308 1011 553 901 444 1011 l 228 1011 l 129 1011 l 97 1011 l 0 1011 l 0 979 l 0 35 l 0 1 l 129 1 l 228 1 l 342 1 b 618 278 494 1 618 125 b 413 546 618 407 531 515 z m 129 979 l 228 979 l 257 979 b 424 813 349 979 424 904 l 424 722 b 257 556 424 629 349 556 l 228 556 l 129 556 l 129 979 z m 488 231 b 292 35 488 122 400 35 l 228 35 l 129 35 l 129 522 l 228 522 l 292 522 b 488 326 400 522 488 435 l 488 231 z "},"C":{"ha":782,"x_min":0,"x_max":0,"o":"m 472 35 b 131 507 283 35 131 246 b 472 979 131 768 283 979 b 543 969 497 979 519 975 b 717 725 649 939 717 836 l 717 686 l 750 686 l 750 783 l 750 864 l 750 881 b 440 1011 671 951 549 1011 b 0 507 197 1011 0 785 b 440 1 0 228 197 1 b 782 197 586 1 701 78 l 750 197 b 472 35 688 97 576 35 z "},"D":{"ha":717,"x_min":0,"x_max":0,"o":"m 260 1011 l 131 1011 l 0 1011 l 0 979 l 0 35 l 0 1 l 131 1 l 260 1 b 717 490 513 1 717 238 l 717 522 b 260 1011 717 775 513 1011 z m 588 490 b 231 35 588 293 522 35 l 131 35 l 131 979 l 231 979 b 588 522 522 979 588 719 l 588 490 z "},"E":{"ha":554,"x_min":0,"x_max":0,"o":"m 229 979 l 392 979 l 554 979 l 554 1011 l 131 1011 l 0 1011 l 0 979 l 0 35 l 0 1 l 131 1 l 554 1 l 554 35 l 392 35 l 229 35 l 131 35 l 131 425 l 131 490 l 131 522 l 164 522 l 196 522 l 244 522 l 326 522 l 392 522 l 554 522 l 554 556 l 392 556 l 326 556 l 244 556 l 196 556 l 164 556 l 131 556 l 131 979 l 229 979 z "},"F":{"ha":554,"x_min":0,"x_max":0,"o":"m 196 979 l 390 979 l 554 979 l 554 1011 l 131 1011 l 0 1011 l 0 979 l 0 35 l 0 1 l 131 1 l 131 35 l 131 328 l 131 425 l 131 490 l 131 522 l 163 522 l 196 522 l 244 522 l 326 522 l 390 522 l 554 522 l 554 556 l 390 556 l 326 556 l 244 556 l 196 556 l 163 556 l 131 556 l 131 979 l 196 979 z "},"G":{"ha":782,"x_min":0,"x_max":0,"o":"m 521 556 l 521 522 l 586 522 l 651 522 l 651 96 b 472 35 596 57 533 35 b 129 507 283 35 129 246 b 472 979 129 768 283 979 b 542 969 496 979 519 975 b 708 783 629 943 690 869 l 749 783 l 749 864 l 749 914 b 439 1011 683 979 553 1011 b 0 507 196 1011 0 785 b 439 1 0 228 196 1 b 782 67 683 1 782 67 l 782 328 l 782 522 l 782 556 l 586 556 l 521 556 z "},"H":{"ha":685,"x_min":0,"x_max":0,"o":"m 554 1011 l 554 979 l 554 686 l 554 556 l 521 556 l 489 556 l 457 556 l 228 556 l 196 556 l 163 556 l 131 556 l 131 686 l 131 979 l 131 1011 l 0 1011 l 0 979 l 0 35 l 0 1 l 131 1 l 131 35 l 131 425 l 131 490 l 131 522 l 163 522 l 196 522 l 228 522 l 457 522 l 489 522 l 521 522 l 554 522 l 554 490 l 554 425 l 554 35 l 554 1 l 685 1 l 685 35 l 685 979 l 685 1011 l 554 1011 z "},"I":{"ha":131,"x_min":0,"x_max":0,"o":"m 131 35 l 131 425 l 131 490 l 131 522 l 131 556 l 131 653 l 131 979 l 131 1011 l 0 1011 l 0 979 l 0 35 l 0 1 l 131 1 l 131 35 z "},"J":{"ha":390,"x_min":0,"x_max":0,"o":"m 260 1011 l 260 979 l 260 751 l 260 490 l 260 328 l 260 99 b 0 -161 260 -31 194 -129 l 0 -194 b 390 164 228 -161 390 -31 l 390 328 l 390 490 l 390 522 l 390 556 l 390 653 l 390 849 l 390 979 l 390 1011 l 260 1011 z "},"K":{"ha":768,"x_min":0,"x_max":0,"o":"m 749 35 l 357 710 l 522 882 l 615 979 l 647 1011 l 646 1011 l 601 1011 l 600 1011 l 569 979 l 131 521 l 131 522 l 131 556 l 131 653 l 131 817 l 131 979 l 131 1011 l 0 1011 l 0 979 l 0 385 l 0 338 l 0 35 l 0 1 l 131 1 l 131 35 l 131 294 l 131 425 l 131 474 l 263 611 l 600 35 l 618 1 l 619 1 l 767 1 l 768 1 l 749 35 z "},"L":{"ha":553,"x_min":0,"x_max":0,"o":"m 346 35 l 228 35 l 194 35 l 129 35 l 129 425 l 129 490 l 129 522 l 129 556 l 129 653 l 129 979 l 129 1011 l 0 1011 l 0 1 l 97 1 l 129 1 l 228 1 l 553 1 l 553 35 l 346 35 z "},"M":{"ha":815,"x_min":0,"x_max":0,"o":"m 732 1011 l 694 1011 l 414 400 l 132 1011 l 97 1011 l 33 1011 l 0 1011 l 0 979 l 0 35 l 0 1 l 33 1 l 33 35 l 33 328 l 33 918 l 182 589 l 358 200 l 417 328 l 432 360 l 685 910 l 685 328 l 685 35 l 685 1 l 815 1 l 815 35 l 815 425 l 815 490 l 815 522 l 815 556 l 815 653 l 815 979 l 815 1011 l 732 1011 z "},"N":{"ha":651,"x_min":0,"x_max":0,"o":"m 651 1007 l 618 1007 l 618 975 l 618 813 l 618 243 l 138 1007 l 32 1007 l 0 1007 l 0 975 l 0 31 l 0 -3 l 32 -3 l 32 31 l 32 389 l 32 931 l 618 -1 l 618 -3 l 639 -35 l 651 -35 l 651 -3 l 651 192 l 651 714 l 651 975 l 651 1007 z "},"O":{"ha":1010,"x_min":0,"x_max":0,"o":"m 506 1007 b 0 503 226 1007 0 782 b 506 -3 0 224 226 -3 b 1010 503 785 -3 1010 224 b 506 1007 1010 782 785 1007 z m 506 31 b 131 503 299 31 131 242 b 506 975 131 764 299 975 b 881 503 713 975 881 764 b 506 31 881 242 713 31 z "},"P":{"ha":619,"x_min":0,"x_max":0,"o":"m 310 1007 l 131 1007 l 33 1007 l 0 1007 l 0 975 l 0 31 l 0 -3 l 131 -3 l 131 31 l 131 356 l 131 389 l 310 389 b 619 699 481 389 619 528 b 310 1007 619 869 481 1007 z m 489 654 b 257 421 489 525 385 421 l 131 421 l 131 486 l 131 519 l 131 975 l 257 975 b 489 742 385 975 489 871 l 489 654 z "},"Q":{"ha":1010,"x_min":0,"x_max":0,"o":"m 1010 503 b 506 1007 1010 782 785 1007 b 0 503 226 1007 0 782 b 506 -3 0 224 226 -3 b 588 6 533 -3 561 0 l 685 -133 l 710 -133 l 782 -133 l 671 26 b 1010 503 868 94 1010 282 z m 644 65 l 554 193 l 522 193 l 457 193 l 565 38 b 506 31 546 33 526 31 b 131 503 299 31 131 242 b 506 975 131 764 299 975 b 881 503 713 975 881 764 b 644 65 881 304 782 135 z "},"R":{"ha":688,"x_min":0,"x_max":0,"o":"m 667 31 l 426 411 b 619 699 539 457 619 568 b 310 1007 619 869 481 1007 l 131 1007 l 32 1007 l 0 1007 l 0 975 l 0 31 l 0 -3 l 131 -3 l 131 31 l 131 356 l 131 389 l 286 389 l 411 190 l 533 -3 l 688 -3 l 667 31 z m 131 421 l 131 486 l 131 519 l 131 975 l 256 975 b 489 742 385 975 489 871 l 489 654 b 256 421 489 525 385 421 l 131 421 z "},"S":{"ha":521,"x_min":0,"x_max":0,"o":"m 325 551 b 129 813 129 649 129 714 b 261 975 129 910 188 975 b 456 747 390 975 456 878 l 488 747 l 488 943 b 256 1007 422 1007 303 1008 b 32 747 129 1006 32 872 b 228 454 32 585 97 519 b 424 225 358 389 424 324 b 261 31 424 128 350 31 l 233 31 b 32 258 122 31 32 147 l 0 258 l 0 63 l 0 96 l 0 63 b 260 -3 64 -3 194 -3 b 521 258 422 -3 521 128 b 325 551 521 421 456 486 z "},"T":{"ha":782,"x_min":0,"x_max":0,"o":"m 782 1007 l 457 1007 l 424 1007 l 392 1007 l 326 1007 l 228 1007 l 0 1007 l 0 975 l 207 975 l 228 975 l 293 975 l 326 975 l 326 617 l 326 31 l 326 -3 l 457 -3 l 457 31 l 457 356 l 457 454 l 457 486 l 457 519 l 457 585 l 457 910 l 457 975 l 522 975 l 575 975 l 782 975 l 782 1007 z "},"U":{"ha":685,"x_min":0,"x_max":0,"o":"m 685 1007 l 651 1007 l 651 975 l 651 649 l 651 356 b 392 31 651 128 521 31 b 131 356 272 31 131 96 l 131 779 l 131 975 l 131 1007 l 0 1007 l 0 975 l 0 779 l 0 356 b 358 -3 0 96 169 -3 b 685 356 586 -3 685 128 l 685 649 l 685 975 l 685 1007 z "},"V":{"ha":749,"x_min":0,"x_max":0,"o":"m 736 975 l 749 1007 l 747 1007 l 713 1007 l 711 1007 l 700 975 l 701 975 l 571 615 l 414 181 l 283 571 l 283 572 l 149 975 l 139 1007 l 138 1007 l 0 1007 l 11 975 l 350 -35 l 371 -35 l 735 975 l 736 975 z "},"W":{"ha":1169,"x_min":0,"x_max":0,"o":"m 1169 1007 l 1135 1007 l 1124 975 l 836 181 l 650 740 l 735 975 l 746 1007 l 713 1007 l 700 975 l 633 790 l 572 975 l 561 1007 l 424 1007 l 435 975 l 563 593 l 413 181 l 149 975 l 138 1007 l 0 1007 l 11 975 l 349 -35 l 369 -35 l 579 543 l 772 -35 l 793 -35 l 1158 975 l 1169 1007 z "},"X":{"ha":865,"x_min":0,"x_max":0,"o":"m 842 31 l 482 546 l 782 975 l 804 1007 l 765 1007 l 742 975 l 463 574 l 183 975 l 160 1007 l 0 1007 l 24 975 l 383 460 l 83 31 l 61 -3 l 101 -3 l 124 31 l 403 432 l 683 31 l 706 -3 l 865 -3 l 842 31 z "},"Y":{"ha":801,"x_min":0,"x_max":0,"o":"m 801 1007 l 763 1007 l 739 975 l 468 568 l 181 975 l 157 1007 l 0 1007 l 21 975 l 349 519 l 349 31 l 349 -3 l 479 -3 l 479 31 l 479 356 l 479 454 l 479 486 l 479 519 l 779 975 l 801 1007 z "},"Z":{"ha":651,"x_min":0,"x_max":0,"o":"m 478 31 l 424 31 l 193 31 l 586 1007 l 553 1007 l 446 1007 l 32 1007 l 0 1007 l 0 975 l 172 975 l 229 975 l 432 975 l 40 -3 l 97 -3 l 181 -3 l 618 -3 l 651 -3 l 651 31 l 478 31 z "},"[":{"ha":401,"x_min":0,"x_max":0,"o":"m 135 1085 l 201 1085 l 332 1085 l 332 1053 l 201 1053 l 201 -164 l 332 -164 l 332 -197 l 201 -197 l 135 -197 l 69 -197 l 69 1085 l 135 1085 z "},"\\":{"ha":565,"x_min":0,"x_max":0,"o":"m 496 -32 b 494 -24 496 -31 496 -26 l 139 1053 l 69 1053 b 69 1044 69 1050 69 1047 l 426 -32 l 496 -32 z "},"]":{"ha":403,"x_min":0,"x_max":0,"o":"m 267 1085 l 201 1085 l 69 1085 l 69 1053 l 201 1053 l 201 -164 l 69 -164 l 69 -197 l 201 -197 l 267 -197 l 333 -197 l 333 1085 l 267 1085 z "},"^":{"ha":528,"x_min":0,"x_max":0,"o":"m 140 625 l 256 915 l 263 915 l 381 625 l 458 625 l 282 1053 l 244 1053 l 69 625 l 140 625 z "},"_":{"ha":731,"x_min":0,"x_max":0,"o":"m 69 0 l 661 0 l 661 -94 l 69 -94 l 69 0 z "},"`":{"ha":347,"x_min":0,"x_max":0,"o":"m 278 822 b 183 963 278 822 222 904 b 94 969 163 992 119 996 b 104 882 69 944 74 901 b 244 789 163 843 244 789 b 278 822 247 786 278 819 z "},"a":{"ha":522,"x_min":0,"x_max":0,"o":"m 392 94 b 485 1 392 43 433 1 l 522 1 l 522 35 l 522 229 l 522 294 l 522 328 l 522 393 b 261 588 522 522 424 588 b 65 522 229 588 164 588 l 65 425 l 99 425 b 293 556 164 556 261 556 l 296 556 b 392 460 349 556 392 513 l 392 393 l 392 333 b 0 175 229 360 0 349 b 229 -10 0 67 56 -10 b 392 94 300 -10 353 36 z m 229 22 b 131 164 157 22 131 93 b 392 294 131 293 261 328 l 392 229 b 229 22 392 164 326 22 z "},"b":{"ha":588,"x_min":0,"x_max":0,"o":"m 294 588 b 131 539 233 588 178 569 l 131 1011 l 65 1011 l 0 1011 l 0 979 l 0 783 l 0 1 l 33 1 l 93 82 b 294 1 146 32 217 1 b 588 294 456 1 588 133 b 294 588 588 457 489 588 z m 294 35 b 131 160 235 35 169 85 l 131 429 b 294 556 169 504 235 556 b 457 294 383 556 457 490 b 294 35 457 151 424 35 z "},"c":{"ha":488,"x_min":0,"x_max":0,"o":"m 456 132 b 293 35 424 67 358 35 b 129 294 194 35 129 151 b 238 540 129 408 175 504 b 299 544 269 553 285 553 b 342 483 322 531 329 510 b 381 426 354 456 365 435 b 422 419 396 418 410 417 b 453 444 435 424 444 432 b 451 500 461 461 461 479 b 411 544 444 515 431 531 b 410 544 411 544 410 544 b 392 557 404 549 399 553 b 300 585 363 572 332 582 b 296 586 299 586 297 586 b 279 588 290 586 285 588 b 260 588 272 588 267 588 b 0 294 99 588 0 457 b 260 1 0 133 99 1 b 488 132 358 1 424 35 l 456 132 z "},"d":{"ha":586,"x_min":0,"x_max":0,"o":"m 586 35 l 586 263 l 586 1011 l 521 1011 l 456 1011 l 456 979 l 456 751 l 456 539 b 293 588 410 569 353 588 b 0 294 97 588 0 457 b 293 1 0 133 131 1 b 456 51 353 1 410 19 l 456 35 l 456 1 l 554 1 l 586 1 l 586 35 z m 456 263 l 456 160 b 293 35 418 85 353 35 b 131 294 163 35 131 151 b 293 556 131 490 203 556 b 456 429 353 556 418 504 l 456 263 z "},"e":{"ha":525,"x_min":0,"x_max":0,"o":"m 331 35 b 167 294 232 35 167 151 b 171 360 167 317 168 339 l 388 360 b 453 531 478 360 521 472 b 297 588 407 571 349 588 b 49 196 104 588 0 400 b 301 1 76 79 181 0 b 525 132 397 3 461 35 l 493 132 b 331 35 461 67 396 35 z m 297 556 b 356 532 321 556 340 547 b 292 393 406 481 363 393 l 175 393 b 297 556 190 488 229 556 z "},"f":{"ha":371,"x_min":0,"x_max":0,"o":"m 313 817 b 354 776 328 814 344 797 l 361 779 l 371 843 b 325 849 354 847 332 849 b 65 588 164 849 65 718 l 0 588 l 0 556 l 65 556 l 65 457 l 65 425 l 65 164 l 65 35 l 65 1 l 194 1 l 194 35 l 194 229 l 194 425 l 194 457 l 194 522 l 194 556 l 293 556 l 293 588 l 196 588 b 313 817 204 815 276 819 z "},"g":{"ha":554,"x_min":0,"x_max":0,"o":"m 424 556 l 424 533 b 294 588 390 567 347 588 b 0 294 132 588 0 457 b 294 1 0 133 132 1 b 424 56 347 1 390 24 l 424 -129 b 293 -260 424 -201 365 -260 l 229 -260 b 99 -194 185 -260 122 -228 l 65 -260 b 164 -292 89 -272 135 -292 l 257 -292 b 554 6 457 -292 554 -194 l 554 556 l 424 556 z m 294 35 b 131 294 204 35 131 151 b 294 556 131 439 204 556 b 424 450 347 556 394 514 l 424 139 b 294 35 394 75 347 35 z "},"h":{"ha":521,"x_min":0,"x_max":0,"o":"m 390 1 l 521 1 l 521 35 l 521 164 l 521 388 b 321 588 521 499 431 588 l 303 588 b 129 533 239 588 179 568 l 129 556 l 129 653 l 129 783 l 129 979 l 129 1011 l 0 1011 l 0 979 l 0 285 l 0 132 l 0 35 l 0 1 l 129 1 l 129 35 l 129 132 l 129 229 l 129 418 b 267 556 129 494 192 556 b 390 432 335 556 390 500 l 390 35 l 390 1 z "},"i":{"ha":129,"x_min":0,"x_max":0,"o":"m 0 556 l 0 457 l 0 425 l 0 328 l 0 35 l 0 1 l 129 1 l 129 35 l 129 294 l 129 328 l 129 425 l 129 457 l 129 556 l 129 588 l 0 588 l 0 556 z m 0 849 l 0 718 l 129 718 l 129 849 l 0 849 z "},"j":{"ha":358,"x_min":0,"x_max":0,"o":"m 228 556 l 228 457 l 228 393 l 228 360 l 228 328 l 228 263 l 228 229 l 228 197 l 228 0 b 0 -253 228 -121 171 -215 l 0 -286 b 358 67 211 -246 358 -119 l 358 197 l 358 229 l 358 263 l 358 294 l 358 328 l 358 360 l 358 393 l 358 457 l 358 556 l 358 588 l 228 588 l 228 556 z m 228 849 l 228 718 l 358 718 l 358 849 l 228 849 z "},"k":{"ha":679,"x_min":0,"x_max":0,"o":"m 660 35 l 325 614 l 361 651 l 519 817 l 550 849 l 506 849 l 503 849 l 472 817 l 474 817 l 411 750 l 129 457 l 129 556 l 129 588 l 129 686 l 129 1011 l 32 1011 l 0 1011 l 0 979 l 0 686 l 0 588 l 0 457 l 0 425 l 0 321 l 0 274 l 0 35 l 0 1 l 129 1 l 129 35 l 129 229 l 129 294 l 129 410 l 232 517 l 421 186 l 529 1 l 679 1 l 660 35 z "},"l":{"ha":131,"x_min":0,"x_max":0,"o":"m 131 35 l 131 294 l 131 425 l 131 457 l 131 490 l 131 817 l 131 979 l 131 1011 l 0 1011 l 0 751 l 0 556 l 0 1 l 131 1 l 131 35 z "},"m":{"ha":913,"x_min":0,"x_max":0,"o":"m 913 35 l 913 360 l 913 388 b 713 588 913 499 824 588 l 696 588 b 489 497 638 588 572 588 b 321 588 453 551 392 588 l 304 588 b 131 533 240 588 181 568 l 131 556 l 131 588 l 0 588 l 0 556 l 0 457 l 0 425 l 0 328 l 0 285 l 0 132 l 0 35 l 0 1 l 131 1 l 131 35 l 131 132 l 131 294 l 131 328 l 131 360 l 131 418 b 268 556 131 494 192 556 b 392 432 336 556 392 500 l 392 393 l 392 360 l 392 317 l 392 285 l 392 132 l 392 67 l 392 35 l 392 1 l 457 1 l 522 1 l 522 35 l 522 132 l 522 360 l 522 388 l 522 418 b 658 556 522 494 583 556 b 782 432 728 556 782 500 l 782 360 l 782 35 l 782 1 l 847 1 l 913 1 l 913 35 z "},"n":{"ha":521,"x_min":0,"x_max":0,"o":"m 392 -3 l 521 -3 l 521 31 l 521 258 l 521 383 b 321 585 521 494 432 585 l 304 585 b 131 529 239 585 179 564 l 131 551 l 131 585 l 0 585 l 0 551 l 0 454 l 0 421 l 0 324 l 0 281 l 0 128 l 0 31 l 0 -3 l 131 -3 l 131 31 l 131 128 l 131 290 l 131 324 l 131 356 l 131 414 b 268 551 131 490 192 551 b 392 428 336 551 392 496 l 392 31 l 392 -3 z "},"o":{"ha":586,"x_min":0,"x_max":0,"o":"m 293 585 b 0 290 131 585 0 453 b 293 -3 0 129 131 -3 b 586 290 454 -3 586 129 b 293 585 586 453 454 585 z m 293 31 b 131 290 203 31 131 147 b 293 551 131 435 203 551 b 456 290 383 551 456 435 b 293 31 456 147 383 31 z "},"p":{"ha":586,"x_min":0,"x_max":0,"o":"m 293 585 b 129 535 232 585 176 565 l 129 551 l 129 585 l 32 585 l 0 585 l 0 551 l 0 324 l 0 -262 l 0 -296 l 129 -296 l 129 -262 l 129 -68 l 129 47 b 293 -3 176 15 232 -3 b 586 290 488 -3 586 129 b 293 585 586 453 454 585 z m 293 31 b 129 156 233 31 168 81 l 129 324 l 129 425 b 293 551 168 501 233 551 b 456 290 422 551 456 435 b 293 31 456 96 382 31 z "},"q":{"ha":588,"x_min":0,"x_max":0,"o":"m 457 -262 l 457 -296 l 588 -296 l 588 -262 l 588 -35 l 588 324 l 588 486 l 588 551 l 588 585 l 554 585 l 457 535 b 294 585 410 565 354 585 b 0 290 132 585 0 453 b 294 -3 0 129 99 -3 b 457 47 354 -3 410 15 l 457 -35 l 457 -262 z m 294 31 b 131 290 204 31 131 96 b 294 551 131 435 164 551 b 457 425 353 551 418 501 l 457 324 l 457 156 b 294 31 418 81 353 31 z "},"r":{"ha":424,"x_min":0,"x_max":0,"o":"m 261 585 b 131 486 214 585 163 551 l 131 535 l 131 551 l 131 585 l 33 585 l 0 585 l 0 551 l 0 324 l 0 31 l 0 -3 l 131 -3 l 131 31 l 131 47 l 131 156 l 131 258 l 131 324 l 131 356 b 261 551 163 486 196 551 b 358 421 317 551 358 486 l 392 421 l 424 519 b 261 585 358 585 326 585 z "},"s":{"ha":358,"x_min":0,"x_max":0,"o":"m 261 324 b 107 471 163 389 107 381 b 196 551 107 539 163 551 b 293 454 261 551 293 519 l 325 454 l 325 551 b 183 585 293 579 228 585 b 32 454 100 585 32 529 b 131 258 32 364 56 303 b 293 128 206 213 293 193 b 163 31 293 75 222 31 b 32 161 97 31 32 96 l 0 161 l 0 31 b 0 31 0 53 0 31 b 181 -3 65 -3 132 -3 b 358 161 278 -3 358 93 b 261 324 358 258 333 275 z "},"t":{"ha":326,"x_min":0,"x_max":0,"o":"m 261 551 l 293 551 l 326 551 l 326 585 l 293 585 l 261 585 l 196 585 l 196 844 l 163 844 l 149 785 b 65 682 136 740 107 703 l 65 585 l 0 585 l 0 551 l 65 551 l 65 135 b 211 -3 65 54 131 -4 b 326 31 250 -1 288 -8 l 326 63 b 257 31 292 29 293 31 b 196 92 224 31 196 58 l 196 551 l 261 551 z "},"u":{"ha":521,"x_min":0,"x_max":0,"o":"m 390 -3 l 521 -3 l 521 31 l 521 128 l 521 161 l 521 258 l 521 301 l 521 356 l 521 389 l 521 454 l 521 551 l 521 585 l 390 585 l 390 551 l 390 454 l 390 290 l 390 258 l 390 167 b 253 31 390 92 329 31 b 129 154 185 31 129 86 l 129 551 l 129 585 l 0 585 l 0 551 l 0 356 l 0 199 b 200 -3 0 88 89 -3 l 217 -3 b 390 53 282 -3 342 18 l 390 31 l 390 -3 z "},"v":{"ha":435,"x_min":0,"x_max":0,"o":"m 435 585 l 400 585 l 389 551 l 263 206 l 147 551 l 136 585 l 0 585 l 10 551 l 192 7 l 194 -3 l 224 -3 l 424 551 l 435 585 z "},"w":{"ha":761,"x_min":0,"x_max":0,"o":"m 761 585 l 726 585 l 714 551 l 589 206 l 451 585 l 422 585 l 263 206 l 147 551 l 136 585 l 0 585 l 10 551 l 192 7 l 194 -3 l 222 -3 l 381 358 l 518 7 l 517 7 l 521 -3 l 549 -3 l 749 551 l 761 585 z "},"x":{"ha":508,"x_min":0,"x_max":0,"o":"m 488 31 l 319 308 l 304 335 l 308 343 l 385 468 l 436 551 l 456 585 l 417 585 l 397 551 l 365 500 l 290 374 l 285 365 l 172 551 l 151 585 l 0 585 l 19 551 l 107 407 l 208 240 l 81 31 l 61 -3 l 99 -3 l 119 31 l 228 208 l 229 206 l 336 31 l 356 -3 l 508 -3 l 488 31 z "},"y":{"ha":553,"x_min":0,"x_max":0,"o":"m 518 585 l 331 157 l 157 551 l 143 585 l 0 585 l 15 551 l 260 -6 l 133 -296 l 175 -296 l 553 585 l 518 585 z "},"z":{"ha":392,"x_min":0,"x_max":0,"o":"m 392 31 l 247 31 l 228 31 l 163 31 l 161 31 l 383 585 l 313 585 l 243 585 l 33 585 l 0 585 l 0 551 l 143 551 l 163 551 l 231 551 l 8 -3 l 65 -3 l 149 -3 l 163 -3 l 261 -3 l 358 -3 l 392 -3 l 392 31 z "},"{":{"ha":565,"x_min":0,"x_max":0,"o":"m 496 -161 b 453 -160 483 -161 467 -161 b 250 36 338 -149 250 -76 b 264 190 250 96 257 147 b 278 303 271 235 278 271 b 231 414 278 356 251 394 b 172 469 196 444 172 456 b 235 532 172 485 196 494 b 278 642 253 550 278 589 b 264 747 278 665 271 704 b 250 883 257 790 250 840 b 456 1068 250 1000 378 1057 b 496 1071 469 1069 485 1071 l 496 1118 b 460 1117 486 1118 472 1118 b 115 893 339 1113 115 1057 b 144 751 115 846 131 797 b 175 629 160 706 175 664 b 121 510 175 583 164 533 b 69 494 103 500 86 497 l 69 442 b 118 433 86 440 101 439 b 175 338 154 424 175 382 b 144 204 175 297 160 253 b 115 44 131 157 115 103 b 421 -206 115 -110 278 -194 b 496 -208 453 -208 481 -208 l 496 -161 z "},"|":{"ha":201,"x_min":0,"x_max":0,"o":"m 76 -328 b 69 -314 69 -328 69 -322 l 69 1132 b 76 1144 69 1140 69 1144 l 124 1144 b 132 1128 129 1144 132 1139 l 132 -314 b 126 -328 132 -321 131 -328 l 76 -328 z "},"}":{"ha":567,"x_min":0,"x_max":0,"o":"m 447 433 b 497 442 464 439 479 440 l 497 494 b 444 510 479 497 463 500 b 390 629 401 533 390 583 b 421 751 390 664 406 706 b 450 893 435 797 450 846 b 106 1117 450 1057 226 1113 b 69 1118 93 1118 81 1118 l 69 1071 b 111 1068 81 1071 96 1069 b 315 883 188 1057 315 1000 b 301 747 315 840 308 790 b 288 642 294 704 288 665 b 331 532 288 589 313 550 b 393 469 369 494 393 485 b 335 414 393 456 369 444 b 288 303 314 394 288 356 b 301 190 288 271 294 235 b 315 36 308 147 315 96 b 113 -160 315 -76 228 -149 b 69 -161 99 -161 82 -161 l 69 -208 b 144 -206 86 -208 113 -208 b 450 44 288 -194 450 -110 b 421 204 450 103 435 157 b 390 338 406 253 390 297 b 447 433 390 382 411 424 z "},"~":{"ha":596,"x_min":0,"x_max":0,"o":"m 526 490 b 410 289 526 364 471 289 b 311 336 372 289 344 311 l 265 375 b 186 407 235 399 214 407 b 132 292 165 407 132 378 l 69 292 b 186 493 69 418 125 493 b 282 458 221 493 247 485 l 331 418 b 406 375 353 403 379 375 b 464 490 435 375 464 407 l 526 490 z "},"¡":{"ha":269,"x_min":0,"x_max":0,"o":"m 69 700 l 69 569 l 200 569 l 200 700 z m 69 -310 l 200 -310 l 168 440 l 103 440 z "},"¢":{"ha":921,"x_min":0,"x_max":0,"o":"m 392 81 l 694 925 b 739 876 711 911 726 894 b 786 725 771 831 786 781 l 786 686 l 819 686 l 819 881 b 706 957 786 910 749 935 l 736 1042 b 738 1053 738 1046 738 1049 l 664 1053 l 640 988 b 510 1011 596 1003 553 1011 b 289 943 428 1011 354 989 b 129 761 222 897 169 838 b 69 507 89 685 69 600 b 129 253 69 414 89 329 b 289 69 169 176 222 115 b 308 57 294 65 301 61 l 282 -18 b 279 -32 278 -25 278 -29 l 351 -32 l 372 25 b 510 1 415 10 461 1 b 706 54 583 1 649 19 b 851 197 763 89 811 138 l 819 197 b 696 78 788 146 746 107 b 542 35 644 49 593 35 b 392 81 488 35 438 50 z m 632 963 l 335 131 b 300 174 322 143 311 157 b 200 507 233 265 200 376 b 300 842 200 638 233 749 b 542 979 367 933 447 979 b 613 969 565 979 589 976 b 632 963 619 968 625 965 z "},"£":{"ha":688,"x_min":0,"x_max":0,"o":"m 565 0 l 635 157 l 601 157 b 474 68 575 97 532 68 l 201 68 b 311 322 274 164 311 250 b 265 457 311 361 296 406 l 492 457 l 492 497 l 249 497 b 211 703 224 560 213 628 b 271 868 211 769 232 825 b 399 935 310 913 353 935 b 574 844 493 935 568 901 l 599 844 l 599 954 b 396 986 599 972 496 986 b 188 904 313 986 243 958 b 104 668 132 849 104 771 b 143 497 104 619 117 561 l 51 497 l 51 457 l 161 457 b 204 318 190 399 204 353 b 78 33 204 236 163 142 l 78 0 z "},"¤":{"ha":688,"x_min":0,"x_max":0,"o":"m 344 336 b 238 379 304 336 265 351 b 193 486 211 406 193 447 b 238 593 193 524 213 567 b 343 636 263 618 304 636 b 450 593 382 636 422 619 b 494 486 476 567 494 525 b 489 447 494 474 493 460 b 344 336 469 379 411 336 z m 550 225 l 604 281 l 525 360 b 565 486 550 397 565 440 b 525 613 565 532 550 576 l 604 693 l 550 747 l 469 667 b 344 708 433 693 388 708 b 217 667 300 708 251 690 l 138 747 l 83 693 l 163 613 b 122 486 138 578 122 531 b 163 360 122 440 139 394 l 83 281 l 138 225 l 217 306 b 344 264 254 279 300 264 b 469 306 390 264 436 281 z "},"¥":{"ha":801,"x_min":0,"x_max":0,"o":"m 349 431 l 111 431 l 111 336 l 349 336 l 349 250 l 111 250 l 111 156 l 349 156 l 349 -3 l 479 -3 l 479 156 l 703 156 l 703 250 l 479 250 l 479 336 l 703 336 l 703 431 l 479 431 l 479 519 l 779 975 l 801 1007 l 763 1007 l 739 975 l 468 568 l 181 975 l 157 1007 l 0 1007 l 21 975 l 349 519 z "},"¦":{"ha":688,"x_min":0,"x_max":0,"o":"m 399 -283 l 399 251 l 289 251 l 289 -283 z m 399 535 l 399 1071 l 289 1071 l 289 535 z "},"§":{"ha":688,"x_min":0,"x_max":0,"o":"m 363 322 b 218 469 265 372 218 421 b 318 564 218 526 257 564 b 392 547 344 564 369 558 b 458 472 428 521 450 496 b 461 457 460 468 460 463 l 463 451 b 363 322 463 389 424 340 z m 317 -108 b 479 -47 376 -108 431 -87 b 538 118 518 -4 538 51 b 506 228 538 161 526 197 b 415 297 488 251 457 275 b 474 335 436 307 456 319 b 532 500 513 378 532 433 b 500 610 532 543 522 579 b 381 693 478 639 439 667 b 213 851 268 747 213 799 b 313 946 213 907 251 946 b 408 915 350 946 378 936 b 456 839 439 896 454 869 l 486 839 l 486 953 b 429 976 486 963 467 969 b 333 986 390 983 360 986 b 322 986 329 986 326 986 b 143 796 213 979 143 910 b 276 613 143 713 185 661 l 300 601 b 149 414 208 586 149 521 b 282 231 149 331 189 279 b 467 69 406 172 467 118 b 317 -68 467 -14 401 -64 b 232 -39 286 -67 258 -57 b 185 39 203 -19 186 7 l 154 39 l 154 -75 b 211 -100 154 -85 174 -93 b 308 -108 253 -107 282 -108 l 317 -108 z "},"¨":{"ha":547,"x_min":0,"x_max":0,"o":"m 347 778 l 478 778 l 478 908 l 347 908 l 347 778 z m 69 907 l 69 776 l 200 776 l 200 907 l 69 907 z "},"©":{"ha":1136,"x_min":0,"x_max":0,"o":"m 568 29 b 243 163 442 29 333 74 b 108 488 153 253 108 361 b 243 813 108 614 153 722 b 568 947 333 901 442 947 b 892 813 694 947 803 901 b 1026 488 982 722 1026 614 b 892 163 1026 361 982 253 b 568 29 803 74 694 29 z m 568 -12 b 921 135 706 -12 824 36 b 1068 488 1018 232 1068 350 b 921 840 1068 625 1018 743 b 568 988 824 939 706 988 b 214 840 429 988 313 939 b 68 488 117 743 68 625 b 214 135 68 350 117 232 b 568 -12 313 36 429 -12 z m 585 163 b 356 478 458 163 356 304 b 585 794 356 653 458 794 b 631 788 600 794 617 792 b 747 625 701 767 747 699 l 747 599 l 769 599 l 769 664 l 769 718 l 769 729 b 563 817 717 776 635 817 b 268 478 400 817 268 665 b 563 140 268 292 400 140 b 792 271 661 140 738 192 l 769 271 b 585 163 728 204 653 163 z "},"ª":{"ha":471,"x_min":0,"x_max":0,"o":"m 318 678 b 378 619 318 646 344 619 l 401 619 l 401 640 l 401 764 l 401 806 l 401 826 l 401 868 b 236 992 401 950 339 992 b 111 950 215 992 174 992 l 111 889 l 132 889 b 257 971 174 971 236 971 l 258 971 b 318 911 292 971 318 944 l 318 868 l 318 831 b 69 729 215 847 69 839 b 215 613 69 661 106 611 b 318 678 261 613 293 640 z m 215 632 b 153 722 169 632 153 676 b 318 806 153 806 236 826 l 318 764 b 215 632 318 722 278 632 z "},"«":{"ha":1311,"x_min":0,"x_max":0,"o":"m 360 119 l 360 144 l 221 325 l 360 506 l 360 531 l 350 531 l 118 325 l 350 119 z m 794 119 l 794 144 l 656 325 l 794 506 l 794 531 l 785 531 l 553 325 l 785 119 z "},"¬":{"ha":688,"x_min":0,"x_max":0,"o":"m 628 186 l 629 188 l 629 521 l 58 521 l 58 453 l 561 453 l 561 186 z "},"®":{"ha":1139,"x_min":0,"x_max":0,"o":"m 569 29 b 244 163 443 29 335 74 b 110 488 154 253 110 361 b 244 813 110 614 154 722 b 569 947 335 901 443 947 b 893 813 696 947 804 901 b 1028 488 983 722 1028 614 b 893 163 1028 361 983 253 b 569 29 804 74 696 29 z m 569 -12 b 922 135 707 -12 825 36 b 1069 488 1019 232 1069 350 b 922 840 1069 625 1019 743 b 569 988 825 939 707 988 b 215 840 431 988 314 939 b 69 488 118 743 69 625 b 215 135 69 350 118 232 b 569 -12 314 36 431 -12 z m 761 260 l 633 463 b 736 614 693 486 736 546 b 571 778 736 704 663 778 l 476 778 l 424 778 l 407 778 l 407 761 l 407 260 l 407 242 l 476 242 l 476 260 l 476 432 l 476 450 l 560 450 l 625 344 l 690 242 l 772 242 l 761 260 z m 476 467 l 476 501 l 476 519 l 476 761 l 543 761 b 667 638 611 761 667 706 l 667 590 b 543 467 667 522 611 467 l 476 467 z "},"¯":{"ha":694,"x_min":0,"x_max":0,"o":"m 522 810 l 522 896 l 172 896 l 172 810 z "},"°":{"ha":482,"x_min":0,"x_max":0,"o":"m 243 692 b 125 808 178 692 125 742 b 243 925 125 874 179 925 b 358 808 307 925 358 874 b 243 692 358 743 308 692 z m 240 635 b 363 686 288 635 328 651 b 413 807 396 719 413 760 b 363 928 413 854 396 894 b 242 978 329 961 289 978 b 119 928 194 978 154 961 b 69 807 86 894 69 854 b 119 685 69 758 86 718 b 240 635 151 651 193 635 z "},"±":{"ha":594,"x_min":0,"x_max":0,"o":"m 508 517 l 329 517 l 329 713 l 264 713 l 264 517 l 83 517 b 69 501 72 517 69 515 l 69 400 b 83 388 69 388 72 386 l 264 388 l 264 192 l 329 192 l 329 388 l 507 388 b 525 404 519 388 525 390 l 525 492 b 508 517 525 513 521 517 z m 588 26 l 588 121 l 586 121 l 17 121 l 17 26 z "},"²":{"ha":413,"x_min":0,"x_max":0,"o":"m 263 604 l 101 604 l 247 733 b 326 925 311 797 326 853 b 199 1054 326 1006 269 1054 b 86 910 133 1054 86 1006 l 101 910 b 199 1038 101 957 118 1038 b 263 942 263 1038 263 957 b 199 749 263 872 268 846 l 69 604 l 69 556 l 311 556 l 326 556 l 332 604 z "},"³":{"ha":418,"x_min":0,"x_max":0,"o":"m 69 668 l 85 668 b 186 582 101 619 138 582 b 289 679 250 582 289 629 b 165 813 289 751 222 799 l 165 829 b 275 929 210 838 275 875 b 203 1010 275 975 247 1010 b 101 942 151 1010 117 982 l 85 942 b 222 1054 94 990 143 1054 b 325 960 297 1054 325 997 b 247 838 325 899 283 860 b 349 713 294 825 349 775 b 174 556 349 621 268 556 b 69 668 92 556 69 647 z "},"´":{"ha":347,"x_min":0,"x_max":0,"o":"m 71 822 b 103 789 69 819 101 786 b 243 882 103 789 185 843 b 253 969 274 901 278 944 b 165 963 228 996 185 992 b 71 822 125 904 71 822 z "},"µ":{"ha":863,"x_min":0,"x_max":0,"o":"m 168 592 l 168 -431 l 299 -431 l 299 13 b 371 0 321 4 344 0 l 388 0 b 563 54 453 0 511 18 l 563 0 l 694 0 l 694 592 l 563 592 l 563 171 b 522 74 563 133 549 100 b 424 33 496 47 463 33 b 336 69 389 33 360 46 b 300 157 313 93 300 122 l 300 592 z "},"¶":{"ha":694,"x_min":0,"x_max":0,"o":"m 544 0 l 544 926 l 631 926 l 631 974 l 329 974 b 63 736 167 974 63 878 b 318 500 63 601 160 508 l 318 0 l 376 0 l 376 926 l 489 926 l 489 0 z "},"·":{"ha":344,"x_min":0,"x_max":0,"o":"m 172 432 b 247 507 213 432 247 464 b 172 581 247 547 214 581 b 97 507 129 581 97 547 b 172 432 97 465 131 432 z "},"∙":{"ha":344,"x_min":0,"x_max":0,"o":"m 172 432 b 247 507 213 432 247 464 b 172 581 247 547 214 581 b 97 507 129 581 97 547 b 172 432 97 465 131 432 z "},"¸":{"ha":694,"x_min":0,"x_max":0,"o":"m 372 -283 b 521 -172 465 -283 521 -240 b 397 -67 521 -103 472 -67 b 356 -71 383 -68 369 -68 l 381 0 l 338 0 l 306 -119 b 328 -118 314 -118 321 -118 b 431 -172 389 -118 431 -133 b 347 -232 431 -214 404 -232 b 244 -197 317 -232 282 -221 l 244 -261 b 372 -283 281 -276 324 -283 z "},"¹":{"ha":289,"x_min":0,"x_max":0,"o":"m 219 572 l 219 1054 l 214 1054 l 203 1054 l 192 1054 l 69 931 l 81 919 l 156 994 l 156 572 l 156 556 l 219 556 l 219 572 z "},"º":{"ha":365,"x_min":0,"x_max":0,"o":"m 183 1068 b 0 811 82 1068 0 953 b 183 554 0 669 82 554 b 365 811 285 554 365 669 b 183 1068 365 953 285 1068 z m 183 569 b 67 811 119 569 67 678 b 183 1051 67 944 119 1051 b 300 811 247 1051 300 944 b 183 569 300 678 247 569 z "},"»":{"ha":1311,"x_min":0,"x_max":0,"o":"m 78 119 l 310 325 l 78 531 l 68 531 l 68 506 l 207 325 l 68 144 l 68 119 z m 513 119 l 744 325 l 513 531 l 503 531 l 503 506 l 642 325 l 503 144 l 503 119 z "},"¼":{"ha":947,"x_min":0,"x_max":0,"o":"m 219 572 l 219 1054 l 214 1054 l 203 1054 l 192 1054 l 69 931 l 81 919 l 156 994 l 156 572 l 156 556 l 219 556 l 219 572 z m 608 1053 l 226 -18 b 224 -32 222 -25 222 -29 l 296 -32 l 681 1042 b 682 1053 682 1046 682 1049 l 608 1053 z m 878 210 l 846 210 l 846 500 l 835 500 l 832 500 l 815 500 l 588 151 l 588 149 l 588 144 l 603 144 l 781 144 l 781 0 l 846 0 l 846 144 l 878 144 l 878 210 z m 644 210 l 781 418 l 781 210 l 644 210 z "},"½":{"ha":953,"x_min":0,"x_max":0,"o":"m 219 572 l 219 1054 l 214 1054 l 203 1054 l 192 1054 l 69 931 l 81 919 l 156 994 l 156 572 l 156 556 l 219 556 l 219 572 z m 608 1053 l 226 -18 b 224 -32 222 -25 222 -29 l 296 -32 l 681 1042 b 682 1053 682 1046 682 1049 l 608 1053 z m 867 46 l 642 46 l 788 175 b 867 367 851 239 867 294 b 739 496 867 447 810 496 b 626 351 674 496 626 447 l 642 351 b 739 479 642 399 658 479 b 803 383 803 479 803 399 b 739 190 803 314 808 288 l 610 46 l 610 -3 l 851 -3 l 867 -3 z "},"¾":{"ha":933,"x_min":0,"x_max":0,"o":"m 608 1053 l 226 -18 b 224 -32 222 -25 222 -29 l 296 -32 l 681 1042 b 682 1053 682 1046 682 1049 l 608 1053 z m 864 210 l 832 210 l 832 500 l 821 500 l 818 500 l 801 500 l 574 151 l 574 149 l 574 144 l 589 144 l 767 144 l 767 0 l 832 0 l 832 144 l 864 144 l 864 210 z m 631 210 l 767 418 l 767 210 l 631 210 z m 69 668 l 85 668 b 186 582 101 619 138 582 b 289 679 250 582 289 629 b 165 813 289 751 222 799 l 165 829 b 275 929 210 838 275 875 b 203 1010 275 975 247 1010 b 101 942 151 1010 117 982 l 85 942 b 222 1054 94 990 143 1054 b 325 960 297 1054 325 997 b 247 838 325 899 283 860 b 349 713 294 825 349 775 b 174 556 349 621 268 556 b 69 668 92 556 69 647 z "},"¿":{"ha":563,"x_min":0,"x_max":0,"o":"m 436 -361 b 493 -299 485 -361 493 -310 b 431 -224 493 -256 479 -222 b 201 17 289 -228 201 -86 b 332 128 201 117 293 128 b 431 119 353 128 406 125 b 464 153 440 115 464 138 l 422 440 b 414 451 422 447 421 451 l 392 451 b 383 440 385 451 383 446 l 383 268 b 374 256 383 261 382 256 b 69 -18 307 251 69 183 b 436 -361 69 -258 339 -361 z m 333 700 l 333 569 l 464 569 l 464 700 z "},"À":{"ha":747,"x_min":0,"x_max":0,"o":"m 450 1086 b 356 1226 450 1086 394 1168 b 267 1233 335 1256 292 1260 b 276 1146 242 1208 246 1165 b 417 1053 335 1107 417 1053 b 450 1086 419 1050 450 1083 z m 447 490 l 521 268 l 524 263 l 611 1 l 747 1 l 660 263 l 399 1044 l 378 1044 l 13 35 l 0 1 l 1 1 l 36 1 l 49 35 l 47 35 l 213 490 l 447 490 z m 335 829 l 436 522 l 224 522 l 335 829 z "},"Á":{"ha":747,"x_min":0,"x_max":0,"o":"m 335 1086 b 367 1053 333 1083 365 1050 b 507 1146 367 1053 449 1107 b 517 1233 538 1165 542 1208 b 429 1226 492 1260 449 1256 b 335 1086 389 1168 335 1086 z m 447 490 l 521 268 l 524 263 l 611 1 l 747 1 l 660 263 l 399 1044 l 378 1044 l 13 35 l 0 1 l 1 1 l 36 1 l 49 35 l 47 35 l 213 490 l 447 490 z m 335 829 l 436 522 l 224 522 l 335 829 z "},"Â":{"ha":747,"x_min":0,"x_max":0,"o":"m 306 1049 l 390 1132 l 394 1132 l 476 1047 l 544 1047 l 408 1221 l 379 1221 l 244 1047 l 306 1049 z m 447 490 l 521 268 l 524 263 l 611 1 l 747 1 l 660 263 l 399 1044 l 378 1044 l 13 35 l 0 1 l 1 1 l 36 1 l 49 35 l 47 35 l 213 490 l 447 490 z m 335 829 l 436 522 l 224 522 l 335 829 z "},"Ã":{"ha":747,"x_min":0,"x_max":0,"o":"m 597 1224 b 504 1050 597 1114 553 1050 b 425 1090 475 1050 451 1068 l 389 1124 b 326 1151 365 1143 349 1151 b 283 1051 310 1151 283 1126 l 233 1051 b 326 1225 233 1161 278 1225 b 401 1196 354 1225 375 1218 l 442 1161 b 501 1124 458 1147 479 1124 b 547 1224 525 1124 547 1151 l 597 1224 z m 447 490 l 521 268 l 524 263 l 611 1 l 747 1 l 660 263 l 399 1044 l 378 1044 l 13 35 l 0 1 l 1 1 l 36 1 l 49 35 l 47 35 l 213 490 l 447 490 z m 335 829 l 436 522 l 224 522 l 335 829 z "},"Ä":{"ha":747,"x_min":0,"x_max":0,"o":"m 444 1083 l 575 1083 l 575 1214 l 444 1214 l 444 1083 z m 167 1213 l 167 1082 l 297 1082 l 297 1213 l 167 1213 z m 447 490 l 521 268 l 524 263 l 611 1 l 747 1 l 660 263 l 399 1044 l 378 1044 l 13 35 l 0 1 l 1 1 l 36 1 l 49 35 l 47 35 l 213 490 l 447 490 z m 335 829 l 436 522 l 224 522 l 335 829 z "},"Å":{"ha":747,"x_min":0,"x_max":0,"o":"m 382 1235 b 294 1147 333 1235 294 1196 b 382 1060 294 1099 333 1060 b 469 1147 431 1060 469 1099 b 382 1235 469 1196 431 1235 z m 385 1107 b 343 1147 361 1107 343 1125 b 385 1189 343 1171 361 1189 b 426 1147 407 1189 426 1171 b 385 1107 426 1125 407 1107 z m 447 490 l 521 268 l 524 263 l 611 1 l 747 1 l 660 263 l 399 1044 l 378 1044 l 13 35 l 0 1 l 1 1 l 36 1 l 49 35 l 47 35 l 213 490 l 447 490 z m 335 829 l 436 522 l 224 522 l 335 829 z "},"Æ":{"ha":1165,"x_min":0,"x_max":0,"o":"m 335 829 l 436 522 l 224 522 z m 611 1 l 1165 1 l 1165 35 l 742 35 l 742 522 l 1165 522 l 1165 556 l 742 556 l 742 979 l 1165 979 l 1165 1011 l 611 1011 l 611 408 l 399 1044 l 378 1044 l 13 35 l 0 1 l 36 1 l 49 35 l 47 35 l 213 490 l 447 490 l 521 268 l 524 263 z "},"Ç":{"ha":782,"x_min":0,"x_max":0,"o":"m 472 35 b 231 174 378 35 297 81 b 131 507 164 265 131 376 b 231 842 131 638 164 749 b 472 979 297 933 378 979 b 543 969 496 979 519 976 b 669 876 596 953 638 922 b 717 725 701 831 717 781 l 717 686 l 750 686 l 750 881 b 606 974 710 917 661 947 b 440 1011 549 999 494 1011 b 219 943 358 1011 285 989 b 60 761 153 897 100 838 b 0 507 19 685 0 600 b 60 253 0 414 19 329 b 219 69 100 176 153 115 b 440 1 285 24 358 1 b 636 54 514 1 579 19 b 782 197 693 89 742 138 l 750 197 b 626 78 718 146 676 107 b 472 35 575 49 524 35 z m 456 -283 b 565 -253 501 -283 539 -274 b 604 -172 592 -232 604 -206 b 571 -93 604 -137 593 -111 b 481 -67 549 -75 518 -67 b 439 -71 467 -68 453 -69 l 464 0 l 421 0 l 389 -119 b 411 -118 397 -118 404 -118 b 486 -131 442 -118 467 -122 b 514 -172 504 -139 514 -153 b 431 -232 515 -212 488 -232 b 328 -197 400 -232 365 -221 l 328 -261 b 456 -283 364 -276 407 -283 z "},"È":{"ha":554,"x_min":0,"x_max":0,"o":"m 353 1072 b 258 1213 353 1072 297 1154 b 169 1219 238 1242 194 1246 b 179 1132 144 1194 149 1151 b 319 1039 238 1093 319 1039 b 353 1072 322 1036 353 1069 z m 229 979 l 392 979 l 554 979 l 554 1011 l 131 1011 l 0 1011 l 0 979 l 0 35 l 0 1 l 131 1 l 554 1 l 554 35 l 392 35 l 229 35 l 131 35 l 131 425 l 131 490 l 131 522 l 164 522 l 196 522 l 244 522 l 326 522 l 392 522 l 554 522 l 554 556 l 392 556 l 326 556 l 244 556 l 196 556 l 164 556 l 131 556 l 131 979 l 229 979 z "},"É":{"ha":554,"x_min":0,"x_max":0,"o":"m 238 1072 b 269 1039 236 1069 268 1036 b 410 1132 269 1039 351 1093 b 419 1219 440 1151 444 1194 b 332 1213 394 1246 351 1242 b 238 1072 292 1154 238 1072 z m 229 979 l 392 979 l 554 979 l 554 1011 l 131 1011 l 0 1011 l 0 979 l 0 35 l 0 1 l 131 1 l 554 1 l 554 35 l 392 35 l 229 35 l 131 35 l 131 425 l 131 490 l 131 522 l 164 522 l 196 522 l 244 522 l 326 522 l 392 522 l 554 522 l 554 556 l 392 556 l 326 556 l 244 556 l 196 556 l 164 556 l 131 556 l 131 979 l 229 979 z "},"Ê":{"ha":554,"x_min":0,"x_max":0,"o":"m 194 1049 l 279 1132 l 283 1132 l 365 1047 l 433 1047 l 297 1221 l 268 1221 l 133 1047 l 194 1049 z m 229 979 l 392 979 l 554 979 l 554 1011 l 131 1011 l 0 1011 l 0 979 l 0 35 l 0 1 l 131 1 l 554 1 l 554 35 l 392 35 l 229 35 l 131 35 l 131 425 l 131 490 l 131 522 l 164 522 l 196 522 l 244 522 l 326 522 l 392 522 l 554 522 l 554 556 l 392 556 l 326 556 l 244 556 l 196 556 l 164 556 l 131 556 l 131 979 l 229 979 z "},"Ë":{"ha":554,"x_min":0,"x_max":0,"o":"m 375 1083 l 506 1083 l 506 1214 l 375 1214 l 375 1083 z m 97 1213 l 97 1082 l 228 1082 l 228 1213 l 97 1213 z m 229 979 l 392 979 l 554 979 l 554 1011 l 131 1011 l 0 1011 l 0 979 l 0 35 l 0 1 l 131 1 l 554 1 l 554 35 l 392 35 l 229 35 l 131 35 l 131 425 l 131 490 l 131 522 l 164 522 l 196 522 l 244 522 l 326 522 l 392 522 l 554 522 l 554 556 l 392 556 l 326 556 l 244 556 l 196 556 l 164 556 l 131 556 l 131 979 l 229 979 z "},"Ì":{"ha":236,"x_min":0,"x_max":0,"o":"m 208 1072 b 114 1213 208 1072 153 1154 b 25 1219 93 1242 50 1246 b 35 1132 0 1194 4 1151 b 175 1039 93 1093 175 1039 b 208 1072 178 1036 208 1069 z m 236 35 l 236 425 l 236 490 l 236 522 l 236 556 l 236 653 l 236 979 l 236 1011 l 106 1011 l 106 979 l 106 35 l 106 1 l 236 1 l 236 35 z "},"Í":{"ha":228,"x_min":0,"x_max":0,"o":"m 21 1072 b 53 1039 19 1069 51 1036 b 193 1132 53 1039 135 1093 b 203 1219 224 1151 228 1194 b 115 1213 178 1246 135 1242 b 21 1072 75 1154 21 1072 z m 131 35 l 131 425 l 131 490 l 131 522 l 131 556 l 131 653 l 131 979 l 131 1011 l 0 1011 l 0 979 l 0 35 l 0 1 l 131 1 l 131 35 z "},"Î":{"ha":328,"x_min":0,"x_max":0,"o":"m 69 1049 l 154 1132 l 158 1132 l 240 1047 l 308 1047 l 172 1221 l 143 1221 l 8 1047 l 69 1049 z m 236 35 l 236 425 l 236 490 l 236 522 l 236 556 l 236 653 l 236 979 l 236 1011 l 106 1011 l 106 979 l 106 35 l 106 1 l 236 1 l 236 35 z "},"Ï":{"ha":328,"x_min":0,"x_max":0,"o":"m 208 1083 l 339 1083 l 339 1214 l 208 1214 l 208 1083 z m -14 1213 l -14 1082 l 117 1082 l 117 1213 l -14 1213 z m 236 35 l 236 425 l 236 490 l 236 522 l 236 556 l 236 653 l 236 979 l 236 1011 l 106 1011 l 106 979 l 106 35 l 106 1 l 236 1 l 236 35 z "},"Ð":{"ha":844,"x_min":0,"x_max":0,"o":"m 253 476 l 350 476 l 350 563 l 253 563 l 253 986 l 353 986 b 535 943 426 986 488 972 b 644 832 581 914 618 878 b 699 682 671 786 689 736 b 713 526 708 628 713 576 l 713 493 b 699 339 713 444 708 393 b 644 189 689 285 671 235 b 535 76 618 143 581 106 b 353 33 488 47 426 33 l 253 33 z m 121 563 l 0 563 l 0 476 l 121 476 l 121 33 l 121 -4 l 383 0 b 617 71 468 0 546 24 b 783 254 686 117 742 178 b 844 493 824 329 844 408 l 844 526 b 783 767 844 611 824 692 b 617 950 742 842 686 903 b 383 1019 546 996 468 1019 l 121 1019 l 121 986 z "},"Ñ":{"ha":651,"x_min":0,"x_max":0,"o":"m 528 1224 b 435 1050 528 1114 483 1050 b 356 1090 406 1050 382 1068 l 319 1124 b 257 1151 296 1143 279 1151 b 214 1051 240 1151 214 1126 l 164 1051 b 257 1225 164 1161 208 1225 b 332 1196 285 1225 306 1218 l 372 1161 b 432 1124 389 1147 410 1124 b 478 1224 456 1124 478 1151 l 528 1224 z m 651 1007 l 618 1007 l 618 975 l 618 813 l 618 243 l 138 1007 l 32 1007 l 0 1007 l 0 975 l 0 31 l 0 -3 l 32 -3 l 32 31 l 32 389 l 32 931 l 618 -1 l 618 -3 l 639 -35 l 651 -35 l 651 -3 l 651 192 l 651 714 l 651 975 l 651 1007 z "},"Ò":{"ha":1019,"x_min":0,"x_max":0,"o":"m 510 1019 b 0 510 229 1019 0 790 b 510 0 0 228 229 0 b 1019 510 792 0 1019 228 b 510 1019 1019 790 792 1019 z m 510 33 b 132 510 301 33 132 246 b 510 986 132 772 301 986 b 888 510 719 986 888 772 b 510 33 888 246 719 33 z m 533 1072 b 439 1213 533 1072 478 1154 b 350 1219 418 1242 375 1246 b 360 1132 325 1194 329 1151 b 500 1039 418 1093 500 1039 b 533 1072 503 1036 533 1069 z "},"Ó":{"ha":1019,"x_min":0,"x_max":0,"o":"m 510 1019 b 0 510 229 1019 0 790 b 510 0 0 228 229 0 b 1019 510 792 0 1019 228 b 510 1019 1019 790 792 1019 z m 510 33 b 132 510 301 33 132 246 b 510 986 132 772 301 986 b 888 510 719 986 888 772 b 510 33 888 246 719 33 z m 460 1072 b 492 1039 458 1069 490 1036 b 632 1132 492 1039 574 1093 b 642 1219 663 1151 667 1194 b 554 1213 617 1246 574 1242 b 460 1072 514 1154 460 1072 z "},"Ô":{"ha":1019,"x_min":0,"x_max":0,"o":"m 510 1019 b 0 510 229 1019 0 790 b 510 0 0 228 229 0 b 1019 510 792 0 1019 228 b 510 1019 1019 790 792 1019 z m 510 33 b 132 510 301 33 132 246 b 510 986 132 772 301 986 b 888 510 719 986 888 772 b 510 33 888 246 719 33 z m 417 1049 l 501 1132 l 506 1132 l 588 1047 l 656 1047 l 519 1221 l 490 1221 l 356 1047 l 417 1049 z "},"Õ":{"ha":1019,"x_min":0,"x_max":0,"o":"m 510 1019 b 0 510 229 1019 0 790 b 510 0 0 228 229 0 b 1019 510 792 0 1019 228 b 510 1019 1019 790 792 1019 z m 510 33 b 132 510 301 33 132 246 b 510 986 132 772 301 986 b 888 510 719 986 888 772 b 510 33 888 246 719 33 z m 694 1224 b 601 1050 694 1114 650 1050 b 522 1090 572 1050 549 1068 l 486 1124 b 424 1151 463 1143 446 1151 b 381 1051 407 1151 381 1126 l 331 1051 b 424 1225 331 1161 375 1225 b 499 1196 451 1225 472 1218 l 539 1161 b 599 1124 556 1147 576 1124 b 644 1224 622 1124 644 1151 l 694 1224 z "},"Ö":{"ha":1019,"x_min":0,"x_max":0,"o":"m 510 1019 b 0 510 229 1019 0 790 b 510 0 0 228 229 0 b 1019 510 792 0 1019 228 b 510 1019 1019 790 792 1019 z m 510 33 b 132 510 301 33 132 246 b 510 986 132 772 301 986 b 888 510 719 986 888 772 b 510 33 888 246 719 33 z m 569 1083 l 700 1083 l 700 1214 l 569 1214 l 569 1083 z m 292 1213 l 292 1082 l 422 1082 l 422 1213 l 292 1213 z "},"×":{"ha":689,"x_min":0,"x_max":0,"o":"m 511 251 l 579 318 l 411 486 l 579 654 l 513 721 l 511 721 l 344 553 l 176 721 l 110 654 l 276 486 l 110 318 l 176 251 l 344 419 z "},"Ø":{"ha":1019,"x_min":0,"x_max":0,"o":"m 619 967 l 311 103 b 243 174 288 122 264 146 b 132 510 169 267 132 378 b 243 847 132 642 169 754 b 510 986 317 940 406 986 b 619 967 549 986 585 979 z m 683 935 b 778 847 717 913 749 883 b 888 510 851 754 888 642 b 778 174 888 378 851 267 b 510 33 704 81 614 33 b 372 64 460 33 414 43 z m 292 49 l 268 -18 b 265 -32 264 -25 264 -29 l 338 -32 l 357 22 b 510 0 406 7 456 0 b 767 69 604 0 690 24 b 951 253 843 115 906 176 b 1019 510 997 329 1019 415 b 951 767 1019 603 997 689 b 767 951 906 843 843 906 b 701 983 746 964 724 974 l 722 1042 b 724 1053 724 1046 724 1049 l 650 1053 l 633 1006 b 510 1019 594 1015 553 1019 b 254 951 417 1019 331 997 b 69 767 176 906 115 843 b 0 510 24 689 0 603 b 69 253 0 415 24 329 b 254 69 115 176 176 115 b 292 49 267 61 279 54 z "},"Ù":{"ha":685,"x_min":0,"x_max":0,"o":"m 408 1072 b 314 1213 408 1072 353 1154 b 225 1219 293 1242 250 1246 b 235 1132 200 1194 204 1151 b 375 1039 293 1093 375 1039 b 408 1072 378 1036 408 1069 z m 685 1007 l 651 1007 l 651 975 l 651 649 l 651 356 b 392 31 651 128 521 31 b 131 356 272 31 131 96 l 131 779 l 131 975 l 131 1007 l 0 1007 l 0 975 l 0 779 l 0 356 b 358 -3 0 96 169 -3 b 685 356 586 -3 685 128 l 685 649 l 685 975 l 685 1007 z "},"Ú":{"ha":685,"x_min":0,"x_max":0,"o":"m 293 1072 b 325 1039 292 1069 324 1036 b 465 1132 325 1039 407 1093 b 475 1219 496 1151 500 1194 b 388 1213 450 1246 407 1242 b 293 1072 347 1154 293 1072 z m 685 1007 l 651 1007 l 651 975 l 651 649 l 651 356 b 392 31 651 128 521 31 b 131 356 272 31 131 96 l 131 779 l 131 975 l 131 1007 l 0 1007 l 0 975 l 0 779 l 0 356 b 358 -3 0 96 169 -3 b 685 356 586 -3 685 128 l 685 649 l 685 975 l 685 1007 z "},"Û":{"ha":685,"x_min":0,"x_max":0,"o":"m 292 1049 l 376 1132 l 381 1132 l 463 1047 l 531 1047 l 394 1221 l 365 1221 l 231 1047 l 292 1049 z m 685 1007 l 651 1007 l 651 975 l 651 649 l 651 356 b 392 31 651 128 521 31 b 131 356 272 31 131 96 l 131 779 l 131 975 l 131 1007 l 0 1007 l 0 975 l 0 779 l 0 356 b 358 -3 0 96 169 -3 b 685 356 586 -3 685 128 l 685 649 l 685 975 l 685 1007 z "},"Ü":{"ha":685,"x_min":0,"x_max":0,"o":"m 444 1083 l 575 1083 l 575 1214 l 444 1214 l 444 1083 z m 167 1213 l 167 1082 l 297 1082 l 297 1213 l 167 1213 z m 685 1007 l 651 1007 l 651 975 l 651 649 l 651 356 b 392 31 651 128 521 31 b 131 356 272 31 131 96 l 131 779 l 131 975 l 131 1007 l 0 1007 l 0 975 l 0 779 l 0 356 b 358 -3 0 96 169 -3 b 685 356 586 -3 685 128 l 685 649 l 685 975 l 685 1007 z "},"Ý":{"ha":801,"x_min":0,"x_max":0,"o":"m 446 1072 b 478 1039 444 1069 476 1036 b 618 1132 478 1039 560 1093 b 628 1219 649 1151 653 1194 b 540 1213 603 1246 560 1242 b 446 1072 500 1154 446 1072 z m 801 1007 l 763 1007 l 739 975 l 468 568 l 181 975 l 157 1007 l 0 1007 l 21 975 l 349 519 l 349 31 l 349 -3 l 479 -3 l 479 31 l 479 356 l 479 454 l 479 486 l 479 519 l 779 975 l 801 1007 z "},"Þ":{"ha":493,"x_min":0,"x_max":0,"o":"m 103 31 b 63 58 89 38 75 47 l 63 -253 b 61 -260 63 -256 63 -258 b 57 -264 60 -262 58 -264 l 7 -264 b 1 -261 4 -264 3 -262 b 0 -253 0 -260 0 -257 l 0 883 b 1 892 0 888 0 890 b 7 894 3 893 4 894 l 54 894 b 63 881 60 894 63 890 l 63 560 l 65 560 l 65 528 b 231 592 99 571 154 592 b 424 506 313 592 376 563 b 493 296 469 449 493 378 b 424 88 493 214 469 144 b 231 0 376 29 313 0 b 103 31 181 0 138 10 z m 63 394 l 63 90 b 104 58 75 78 88 67 b 197 33 133 42 165 33 b 317 111 246 33 286 60 b 361 296 346 163 361 224 b 314 483 361 369 346 432 b 197 560 282 535 243 560 b 107 515 164 560 133 544 b 65 394 79 485 65 444 z "},"ß":{"ha":1738,"x_min":0,"x_max":0,"o":""},"à":{"ha":522,"x_min":0,"x_max":0,"o":"m 325 628 b 231 768 325 628 269 710 b 142 775 210 797 167 801 b 151 688 117 750 121 707 b 292 594 210 649 292 594 b 325 628 294 592 325 625 z m 392 94 b 485 1 392 43 433 1 l 522 1 l 522 35 l 522 229 l 522 294 l 522 328 l 522 393 b 261 588 522 522 424 588 b 65 522 229 588 164 588 l 65 425 l 99 425 b 293 556 164 556 261 556 l 296 556 b 392 460 349 556 392 513 l 392 393 l 392 333 b 0 175 229 360 0 349 b 229 -10 0 67 56 -10 b 392 94 300 -10 353 36 z m 229 22 b 131 164 157 22 131 93 b 392 294 131 293 261 328 l 392 229 b 229 22 392 164 326 22 z "},"á":{"ha":522,"x_min":0,"x_max":0,"o":"m 238 628 b 269 594 236 625 268 592 b 410 688 269 594 351 649 b 419 775 440 707 444 750 b 332 768 394 801 351 797 b 238 628 292 710 238 628 z m 392 94 b 485 1 392 43 433 1 l 522 1 l 522 35 l 522 229 l 522 294 l 522 328 l 522 393 b 261 588 522 522 424 588 b 65 522 229 588 164 588 l 65 425 l 99 425 b 293 556 164 556 261 556 l 296 556 b 392 460 349 556 392 513 l 392 393 l 392 333 b 0 175 229 360 0 349 b 229 -10 0 67 56 -10 b 392 94 300 -10 353 36 z m 229 22 b 131 164 157 22 131 93 b 392 294 131 293 261 328 l 392 229 b 229 22 392 164 326 22 z "},"â":{"ha":522,"x_min":0,"x_max":0,"o":"m 194 604 l 279 688 l 283 688 l 365 603 l 433 603 l 297 776 l 268 776 l 133 603 l 194 604 z m 392 94 b 485 1 392 43 433 1 l 522 1 l 522 35 l 522 229 l 522 294 l 522 328 l 522 393 b 261 588 522 522 424 588 b 65 522 229 588 164 588 l 65 425 l 99 425 b 293 556 164 556 261 556 l 296 556 b 392 460 349 556 392 513 l 392 393 l 392 333 b 0 175 229 360 0 349 b 229 -10 0 67 56 -10 b 392 94 300 -10 353 36 z m 229 22 b 131 164 157 22 131 93 b 392 294 131 293 261 328 l 392 229 b 229 22 392 164 326 22 z "},"ã":{"ha":522,"x_min":0,"x_max":0,"o":"m 486 779 b 393 606 486 669 442 606 b 314 646 364 606 340 624 l 278 679 b 215 707 254 699 238 707 b 172 607 199 707 172 682 l 122 607 b 215 781 122 717 167 781 b 290 751 243 781 264 774 l 331 717 b 390 679 347 703 368 679 b 436 779 414 679 436 707 l 486 779 z m 392 94 b 485 1 392 43 433 1 l 522 1 l 522 35 l 522 229 l 522 294 l 522 328 l 522 393 b 261 588 522 522 424 588 b 65 522 229 588 164 588 l 65 425 l 99 425 b 293 556 164 556 261 556 l 296 556 b 392 460 349 556 392 513 l 392 393 l 392 333 b 0 175 229 360 0 349 b 229 -10 0 67 56 -10 b 392 94 300 -10 353 36 z m 229 22 b 131 164 157 22 131 93 b 392 294 131 293 261 328 l 392 229 b 229 22 392 164 326 22 z "},"ä":{"ha":522,"x_min":0,"x_max":0,"o":"m 333 639 l 464 639 l 464 769 l 333 769 l 333 639 z m 97 768 l 97 638 l 228 638 l 228 768 l 97 768 z m 392 94 b 485 1 392 43 433 1 l 522 1 l 522 35 l 522 229 l 522 294 l 522 328 l 522 393 b 261 588 522 522 424 588 b 65 522 229 588 164 588 l 65 425 l 99 425 b 293 556 164 556 261 556 l 296 556 b 392 460 349 556 392 513 l 392 393 l 392 333 b 0 175 229 360 0 349 b 229 -10 0 67 56 -10 b 392 94 300 -10 353 36 z m 229 22 b 131 164 157 22 131 93 b 392 294 131 293 261 328 l 392 229 b 229 22 392 164 326 22 z "},"å":{"ha":522,"x_min":0,"x_max":0,"o":"m 285 776 b 197 689 236 776 197 738 b 285 601 197 640 236 601 b 372 689 333 601 372 640 b 285 776 372 738 333 776 z m 288 649 b 246 689 264 649 246 667 b 288 731 246 713 264 731 b 329 689 310 731 329 713 b 288 649 329 667 310 649 z m 392 94 b 485 1 392 43 433 1 l 522 1 l 522 35 l 522 229 l 522 294 l 522 328 l 522 393 b 261 588 522 522 424 588 b 65 522 229 588 164 588 l 65 425 l 99 425 b 293 556 164 556 261 556 l 296 556 b 392 460 349 556 392 513 l 392 393 l 392 333 b 0 175 229 360 0 349 b 229 -10 0 67 56 -10 b 392 94 300 -10 353 36 z m 229 22 b 131 164 157 22 131 93 b 392 294 131 293 261 328 l 392 229 b 229 22 392 164 326 22 z "},"æ":{"ha":889,"x_min":0,"x_max":0,"o":"m 229 22 b 153 67 193 22 168 38 b 131 164 138 96 131 129 b 169 264 131 207 143 240 b 267 304 194 286 226 300 b 392 294 306 308 347 306 l 392 229 b 372 149 392 208 385 181 b 315 61 358 115 339 86 b 229 22 290 35 261 22 z m 658 556 b 717 532 682 556 701 547 b 729 442 740 503 744 474 b 653 393 714 410 688 393 l 536 393 b 578 511 543 442 557 481 b 658 556 597 540 624 556 z m 522 40 b 663 1 563 15 610 3 b 886 132 753 -3 828 40 l 854 132 b 785 60 838 100 814 75 b 692 35 756 43 724 35 b 574 111 643 35 603 60 b 528 294 543 161 528 222 b 532 360 528 318 529 339 l 749 360 b 821 390 778 360 803 369 b 847 461 839 411 847 435 b 814 531 847 488 836 510 b 739 575 790 551 765 565 b 658 588 711 583 685 588 b 499 532 594 588 542 569 b 481 515 492 526 486 521 b 453 539 472 524 463 532 b 261 588 407 571 343 588 b 188 579 244 588 219 585 b 65 522 156 572 114 554 l 65 425 l 99 425 b 171 517 121 468 144 499 b 244 550 197 535 221 546 b 293 556 267 554 283 556 l 296 556 b 364 528 322 556 344 546 b 392 460 382 508 392 486 l 392 333 b 263 344 350 340 307 343 b 136 329 217 344 175 339 b 39 276 96 318 64 300 b 0 175 13 251 0 218 b 22 79 0 139 7 107 b 93 14 36 51 60 29 b 229 -10 126 -1 172 -10 b 322 19 264 -10 296 0 b 392 94 349 39 372 64 b 419 29 392 68 401 47 b 485 1 438 11 458 1 l 522 1 z "},"ç":{"ha":493,"x_min":0,"x_max":0,"o":"m 224 3 l 194 -106 b 217 -104 203 -104 210 -104 b 292 -117 247 -104 272 -108 b 319 -158 310 -125 319 -139 b 236 -218 321 -199 293 -218 b 133 -183 206 -218 171 -207 l 133 -247 b 261 -269 169 -262 213 -269 b 371 -239 307 -269 344 -260 b 410 -158 397 -218 410 -192 b 376 -79 410 -124 399 -97 b 286 -53 354 -61 324 -53 b 244 -57 272 -54 258 -56 l 265 1 b 388 31 313 3 353 13 b 488 132 422 50 456 83 l 456 132 b 386 60 439 100 415 75 b 293 35 357 43 325 35 b 175 111 244 35 204 60 b 129 294 144 161 129 222 b 238 540 129 407 165 489 b 275 550 253 546 265 549 b 299 544 285 550 292 549 b 322 522 308 538 317 531 b 339 490 328 513 333 503 b 342 483 340 489 340 486 b 381 426 354 454 367 436 b 422 419 396 418 410 415 b 453 444 435 424 446 432 b 451 500 463 461 461 479 b 411 544 444 515 432 531 l 410 544 b 392 557 404 549 399 553 b 300 585 363 572 332 582 b 299 586 300 586 300 586 l 294 586 b 279 588 290 588 285 588 l 260 588 b 69 503 179 588 115 560 b 0 294 24 446 0 376 b 69 88 0 214 24 144 b 224 3 108 39 160 11 z "},"è":{"ha":525,"x_min":0,"x_max":0,"o":"m 311 628 b 217 768 311 628 256 710 b 128 775 196 797 153 801 b 138 688 103 750 107 707 b 278 594 196 649 278 594 b 311 628 281 592 311 625 z m 331 35 b 167 294 232 35 167 151 b 171 360 167 317 168 339 l 388 360 b 453 531 478 360 521 472 b 297 588 407 571 349 588 b 49 196 104 588 0 400 b 301 1 76 79 181 0 b 525 132 397 3 461 35 l 493 132 b 331 35 461 67 396 35 z m 297 556 b 356 532 321 556 340 547 b 292 393 406 481 363 393 l 175 393 b 297 556 190 488 229 556 z "},"é":{"ha":525,"x_min":0,"x_max":0,"o":"m 251 628 b 283 594 250 625 282 592 b 424 688 283 594 365 649 b 433 775 454 707 458 750 b 346 768 408 801 365 797 b 251 628 306 710 251 628 z m 331 35 b 167 294 232 35 167 151 b 171 360 167 317 168 339 l 388 360 b 453 531 478 360 521 472 b 297 588 407 571 349 588 b 49 196 104 588 0 400 b 301 1 76 79 181 0 b 525 132 397 3 461 35 l 493 132 b 331 35 461 67 396 35 z m 297 556 b 356 532 321 556 340 547 b 292 393 406 481 363 393 l 175 393 b 297 556 190 488 229 556 z "},"ê":{"ha":525,"x_min":0,"x_max":0,"o":"m 181 604 l 265 688 l 269 688 l 351 603 l 419 603 l 283 776 l 254 776 l 119 603 l 181 604 z m 331 35 b 167 294 232 35 167 151 b 171 360 167 317 168 339 l 388 360 b 453 531 478 360 521 472 b 297 588 407 571 349 588 b 49 196 104 588 0 400 b 301 1 76 79 181 0 b 525 132 397 3 461 35 l 493 132 b 331 35 461 67 396 35 z m 297 556 b 356 532 321 556 340 547 b 292 393 406 481 363 393 l 175 393 b 297 556 190 488 229 556 z "},"ë":{"ha":525,"x_min":0,"x_max":0,"o":"m 319 639 l 450 639 l 450 769 l 319 769 l 319 639 z m 83 768 l 83 638 l 214 638 l 214 768 l 83 768 z m 331 35 b 167 294 232 35 167 151 b 171 360 167 317 168 339 l 388 360 b 453 531 478 360 521 472 b 297 588 407 571 349 588 b 49 196 104 588 0 400 b 301 1 76 79 181 0 b 525 132 397 3 461 35 l 493 132 b 331 35 461 67 396 35 z m 297 556 b 356 532 321 556 340 547 b 292 393 406 481 363 393 l 175 393 b 297 556 190 488 229 556 z "},"ì":{"ha":329,"x_min":0,"x_max":0,"o":"m 200 628 b 106 768 200 628 144 710 b 17 775 85 797 42 801 b 26 688 -8 750 -4 707 b 167 594 85 649 167 594 b 200 628 169 592 200 625 z m 111 556 l 111 457 l 111 425 l 111 328 l 111 35 l 111 1 l 240 1 l 240 35 l 240 294 l 240 328 l 240 425 l 240 457 l 240 556 l 240 588 l 111 588 l 111 556 z "},"í":{"ha":329,"x_min":0,"x_max":0,"o":"m 113 628 b 144 594 111 625 143 592 b 285 688 144 594 226 649 b 294 775 315 707 319 750 b 207 768 269 801 226 797 b 113 628 167 710 113 628 z m 97 556 l 97 457 l 97 425 l 97 328 l 97 35 l 97 1 l 226 1 l 226 35 l 226 294 l 226 328 l 226 425 l 226 457 l 226 556 l 226 588 l 97 588 l 97 556 z "},"î":{"ha":335,"x_min":0,"x_max":0,"o":"m 61 604 l 146 688 l 150 688 l 232 603 l 300 603 l 164 776 l 135 776 l 0 603 l 61 604 z m 97 556 l 97 457 l 97 425 l 97 328 l 97 35 l 97 1 l 226 1 l 226 35 l 226 294 l 226 328 l 226 425 l 226 457 l 226 556 l 226 588 l 97 588 l 97 556 z "},"ï":{"ha":371,"x_min":0,"x_max":0,"o":"m 236 639 l 367 639 l 367 769 l 236 769 l 236 639 z m 0 768 l 0 638 l 131 638 l 131 768 l 0 768 z m 125 556 l 125 457 l 125 425 l 125 328 l 125 35 l 125 1 l 254 1 l 254 35 l 254 294 l 254 328 l 254 425 l 254 457 l 254 556 l 254 588 l 125 588 l 125 556 z "},"ð":{"ha":536,"x_min":0,"x_max":0,"o":"m 394 396 l 394 181 b 357 79 394 140 382 107 b 264 36 331 50 300 36 b 171 88 226 36 196 53 b 132 197 144 121 132 157 l 132 361 b 171 482 132 411 144 451 b 264 526 196 511 226 526 b 357 492 300 526 331 515 b 394 396 382 468 394 436 z m 489 726 l 536 726 l 536 813 l 454 813 b 392 901 436 847 415 876 b 246 993 350 944 301 975 b 67 1019 189 1011 129 1019 l 67 986 b 232 943 126 986 182 972 b 344 813 278 915 315 872 l 186 813 l 186 726 l 375 726 b 394 540 388 674 394 611 l 394 504 b 393 506 394 506 394 506 b 392 508 393 507 393 507 l 389 515 b 367 540 385 522 376 531 b 326 565 357 550 343 558 b 264 576 308 572 288 576 b 79 501 190 576 129 551 b 0 289 28 450 1 379 b 78 76 0 199 26 128 b 264 0 129 25 190 0 b 450 85 336 0 399 28 b 526 289 501 142 526 210 l 526 432 b 490 722 526 550 514 646 b 489 726 490 724 489 725 z "},"ñ":{"ha":521,"x_min":0,"x_max":0,"o":"m 458 779 b 365 606 458 669 414 606 b 286 646 336 606 313 624 l 250 679 b 188 707 226 699 210 707 b 144 607 171 707 144 682 l 94 607 b 188 781 94 717 139 781 b 263 751 215 781 236 774 l 303 717 b 363 679 319 703 340 679 b 408 779 386 679 408 707 l 458 779 z m 392 -3 l 521 -3 l 521 31 l 521 258 l 521 383 b 321 585 521 494 432 585 l 304 585 b 131 529 239 585 179 564 l 131 551 l 131 585 l 0 585 l 0 551 l 0 454 l 0 421 l 0 324 l 0 281 l 0 128 l 0 31 l 0 -3 l 131 -3 l 131 31 l 131 128 l 131 290 l 131 324 l 131 356 l 131 414 b 268 551 131 490 192 551 b 392 428 336 551 392 496 l 392 31 l 392 -3 z "},"ò":{"ha":592,"x_min":0,"x_max":0,"o":"m 339 628 b 244 768 339 628 283 710 b 156 775 224 797 181 801 b 165 688 131 750 135 707 b 306 594 224 649 306 594 b 339 628 308 592 339 625 z m 293 585 b 0 290 131 585 0 453 b 293 -3 0 129 131 -3 b 586 290 454 -3 586 129 b 293 585 586 453 454 585 z m 293 31 b 131 290 203 31 131 147 b 293 551 131 435 203 551 b 456 290 383 551 456 435 b 293 31 456 147 383 31 z "},"ó":{"ha":592,"x_min":0,"x_max":0,"o":"m 251 628 b 283 594 250 625 282 592 b 424 688 283 594 365 649 b 433 775 454 707 458 750 b 346 768 408 801 365 797 b 251 628 306 710 251 628 z m 293 585 b 0 290 131 585 0 453 b 293 -3 0 129 131 -3 b 586 290 454 -3 586 129 b 293 585 586 453 454 585 z m 293 31 b 131 290 203 31 131 147 b 293 551 131 435 203 551 b 456 290 383 551 456 435 b 293 31 456 147 383 31 z "},"ô":{"ha":592,"x_min":0,"x_max":0,"o":"m 194 604 l 279 688 l 283 688 l 365 603 l 433 603 l 297 776 l 268 776 l 133 603 l 194 604 z m 293 585 b 0 290 131 585 0 453 b 293 -3 0 129 131 -3 b 586 290 454 -3 586 129 b 293 585 586 453 454 585 z m 293 31 b 131 290 203 31 131 147 b 293 551 131 435 203 551 b 456 290 383 551 456 435 b 293 31 456 147 383 31 z "},"õ":{"ha":592,"x_min":0,"x_max":0,"o":"m 486 779 b 393 606 486 669 442 606 b 314 646 364 606 340 624 l 278 679 b 215 707 254 699 238 707 b 172 607 199 707 172 682 l 122 607 b 215 781 122 717 167 781 b 290 751 243 781 264 774 l 331 717 b 390 679 347 703 368 679 b 436 779 414 679 436 707 l 486 779 z m 293 585 b 0 290 131 585 0 453 b 293 -3 0 129 131 -3 b 586 290 454 -3 586 129 b 293 585 586 453 454 585 z m 293 31 b 131 290 203 31 131 147 b 293 551 131 435 203 551 b 456 290 383 551 456 435 b 293 31 456 147 383 31 z "},"ö":{"ha":592,"x_min":0,"x_max":0,"o":"m 347 639 l 478 639 l 478 769 l 347 769 l 347 639 z m 111 768 l 111 638 l 242 638 l 242 768 l 111 768 z m 293 585 b 0 290 131 585 0 453 b 293 -3 0 129 131 -3 b 586 290 454 -3 586 129 b 293 585 586 453 454 585 z m 293 31 b 131 290 203 31 131 147 b 293 551 131 435 203 551 b 456 290 383 551 456 435 b 293 31 456 147 383 31 z "},"÷":{"ha":688,"x_min":0,"x_max":0,"o":"m 629 564 l 629 658 l 628 658 l 58 658 l 58 564 z m 282 335 l 413 335 l 413 465 l 282 465 l 282 335 z m 282 922 l 282 792 l 413 792 l 413 922 l 282 922 z "},"ø":{"ha":592,"x_min":0,"x_max":0,"o":"m 367 533 l 178 113 b 131 296 146 163 131 224 b 179 482 131 368 147 431 b 296 558 211 533 250 558 b 367 533 321 558 344 550 z m 415 475 b 460 296 444 425 460 365 b 413 110 460 222 444 161 b 296 33 381 58 342 33 b 226 57 271 33 247 42 z m 144 40 l 74 -118 b 71 -129 69 -124 69 -128 l 143 -129 l 207 13 b 296 0 235 4 264 0 b 506 88 378 0 447 29 b 592 296 563 144 592 214 b 506 506 592 378 563 447 b 449 550 488 522 469 538 l 528 724 b 529 732 529 726 529 729 l 456 732 l 386 578 b 296 592 358 588 328 592 b 88 506 214 592 144 563 b 0 296 29 447 0 378 b 88 88 0 214 29 144 b 144 40 106 68 125 53 z "},"ù":{"ha":521,"x_min":0,"x_max":0,"o":"m 297 628 b 203 768 297 628 242 710 b 114 775 182 797 139 801 b 124 688 89 750 93 707 b 264 594 182 649 264 594 b 297 628 267 592 297 625 z m 390 -3 l 521 -3 l 521 31 l 521 128 l 521 161 l 521 258 l 521 301 l 521 356 l 521 389 l 521 454 l 521 551 l 521 585 l 390 585 l 390 551 l 390 454 l 390 290 l 390 258 l 390 167 b 253 31 390 92 329 31 b 129 154 185 31 129 86 l 129 551 l 129 585 l 0 585 l 0 551 l 0 356 l 0 199 b 200 -3 0 88 89 -3 l 217 -3 b 390 53 282 -3 342 18 l 390 31 l 390 -3 z "},"ú":{"ha":521,"x_min":0,"x_max":0,"o":"m 224 628 b 256 594 222 625 254 592 b 396 688 256 594 338 649 b 406 775 426 707 431 750 b 318 768 381 801 338 797 b 224 628 278 710 224 628 z m 390 -3 l 521 -3 l 521 31 l 521 128 l 521 161 l 521 258 l 521 301 l 521 356 l 521 389 l 521 454 l 521 551 l 521 585 l 390 585 l 390 551 l 390 454 l 390 290 l 390 258 l 390 167 b 253 31 390 92 329 31 b 129 154 185 31 129 86 l 129 551 l 129 585 l 0 585 l 0 551 l 0 356 l 0 199 b 200 -3 0 88 89 -3 l 217 -3 b 390 53 282 -3 342 18 l 390 31 l 390 -3 z "},"û":{"ha":521,"x_min":0,"x_max":0,"o":"m 167 604 l 251 688 l 256 688 l 338 603 l 406 603 l 269 776 l 240 776 l 106 603 l 167 604 z m 390 -3 l 521 -3 l 521 31 l 521 128 l 521 161 l 521 258 l 521 301 l 521 356 l 521 389 l 521 454 l 521 551 l 521 585 l 390 585 l 390 551 l 390 454 l 390 290 l 390 258 l 390 167 b 253 31 390 92 329 31 b 129 154 185 31 129 86 l 129 551 l 129 585 l 0 585 l 0 551 l 0 356 l 0 199 b 200 -3 0 88 89 -3 l 217 -3 b 390 53 282 -3 342 18 l 390 31 l 390 -3 z "},"ü":{"ha":521,"x_min":0,"x_max":0,"o":"m 306 639 l 436 639 l 436 769 l 306 769 l 306 639 z m 69 768 l 69 638 l 200 638 l 200 768 l 69 768 z m 390 -3 l 521 -3 l 521 31 l 521 128 l 521 161 l 521 258 l 521 301 l 521 356 l 521 389 l 521 454 l 521 551 l 521 585 l 390 585 l 390 551 l 390 454 l 390 290 l 390 258 l 390 167 b 253 31 390 92 329 31 b 129 154 185 31 129 86 l 129 551 l 129 585 l 0 585 l 0 551 l 0 356 l 0 199 b 200 -3 0 88 89 -3 l 217 -3 b 390 53 282 -3 342 18 l 390 31 l 390 -3 z "},"ý":{"ha":553,"x_min":0,"x_max":0,"o":"m 265 628 b 297 594 264 625 296 592 b 438 688 297 594 379 649 b 447 775 468 707 472 750 b 360 768 422 801 379 797 b 265 628 319 710 265 628 z m 518 585 l 331 157 l 157 551 l 143 585 l 0 585 l 15 551 l 260 -6 l 133 -296 l 175 -296 l 553 585 l 518 585 z "},"þ":{"ha":493,"x_min":0,"x_max":0,"o":"m 103 31 b 63 58 89 38 75 47 l 63 -253 b 61 -260 63 -256 63 -258 b 57 -264 60 -262 58 -264 l 7 -264 b 1 -261 4 -264 3 -262 b 0 -253 0 -260 0 -257 l 0 883 b 1 892 0 888 0 890 b 7 894 3 893 4 894 l 54 894 b 63 881 60 894 63 890 l 63 560 l 65 560 l 65 528 b 231 592 99 571 154 592 b 424 506 313 592 376 563 b 493 296 469 449 493 378 b 424 88 493 214 469 144 b 231 0 376 29 313 0 b 103 31 181 0 138 10 z m 63 394 l 63 90 b 104 58 75 78 88 67 b 197 33 133 42 165 33 b 317 111 246 33 286 60 b 361 296 346 163 361 224 b 314 483 361 369 346 432 b 197 560 282 535 243 560 b 107 515 164 560 133 544 b 65 394 79 485 65 444 z "},"ÿ":{"ha":553,"x_min":0,"x_max":0,"o":"m 347 639 l 478 639 l 478 769 l 347 769 l 347 639 z m 111 768 l 111 638 l 242 638 l 242 768 l 111 768 z m 518 585 l 331 157 l 157 551 l 143 585 l 0 585 l 15 551 l 260 -6 l 133 -296 l 175 -296 l 553 585 l 518 585 z "},"ı":{"ha":240,"x_min":0,"x_max":0,"o":"m 239 207 l 240 207 l 240 797 l 232 797 l 214 797 l 196 797 l 0 601 l 18 583 l 138 701 l 138 28 l 138 3 l 239 3 l 239 207 z "},"̀":{"ha":0,"x_min":0,"x_max":0,"o":"m -17 732 l -214 933 b -279 974 -244 964 -261 974 b -329 926 -310 974 -329 953 b -287 869 -329 906 -315 888 l -64 732 z "},"́":{"ha":0,"x_min":0,"x_max":0,"o":"m -283 732 l -58 869 b -17 926 -31 888 -17 906 b -67 974 -17 953 -36 974 b -132 933 -86 974 -101 964 l -329 732 z "},"̂":{"ha":0,"x_min":0,"x_max":0,"o":"m -29 733 l -186 974 l -265 974 l -424 733 l -383 733 l -226 879 l -68 733 z "},"̃":{"ha":0,"x_min":0,"x_max":0,"o":"m -161 789 b -72 828 -124 789 -94 801 b -26 918 -50 854 -35 885 l -62 918 b -122 879 -75 892 -94 879 b -206 899 -149 879 -176 886 b -289 918 -236 911 -262 918 b -369 879 -319 918 -347 904 b -415 789 -392 853 -407 824 l -378 789 b -321 831 -367 817 -349 831 b -239 810 -296 831 -268 824 b -161 789 -210 796 -183 789 z "},"̄":{"ha":364,"x_min":0,"x_max":0,"o":"m 357 810 l 357 896 l 7 896 l 7 810 z "},"̇":{"ha":0,"x_min":0,"x_max":0,"o":"m -189 775 b -174 785 -186 775 -183 775 l -125 838 b -117 856 -119 842 -118 847 b -124 871 -117 863 -119 868 l -172 924 b -189 931 -176 928 -183 931 b -207 924 -194 931 -201 928 l -254 874 b -262 857 -261 868 -262 863 b -258 840 -262 849 -261 844 l -207 782 b -189 775 -203 776 -197 775 z "},"̈":{"ha":0,"x_min":0,"x_max":0,"o":"m -335 775 b -318 786 -331 775 -325 778 l -271 838 b -262 856 -265 843 -262 849 b -269 872 -262 860 -265 865 l -317 922 b -335 931 -324 928 -329 931 b -351 924 -340 931 -346 928 l -400 874 b -408 857 -406 868 -408 863 b -403 840 -408 851 -407 846 l -351 782 b -335 775 -346 778 -340 775 z m -86 775 b -69 786 -83 775 -78 778 l -24 838 b -15 856 -18 843 -15 849 b -22 872 -15 860 -17 865 l -68 922 b -86 931 -76 928 -82 931 b -104 924 -92 931 -97 928 l -151 874 b -161 857 -158 868 -161 863 b -156 842 -161 851 -160 847 l -104 782 b -86 775 -99 778 -93 775 z "},"̊":{"ha":404,"x_min":0,"x_max":0,"o":"m 203 1060 b 69 928 129 1060 69 1000 b 203 794 69 854 129 794 b 335 928 275 794 335 854 b 203 1060 335 1000 275 1060 z m 203 851 b 126 928 160 851 126 885 b 203 1004 126 969 160 1004 b 279 928 244 1004 279 969 b 203 851 279 885 244 851 z "},"̌":{"ha":0,"x_min":0,"x_max":0,"o":"m -186 732 l -29 974 l -68 974 l -226 829 l -383 974 l -424 974 l -265 732 z "},"̧":{"ha":0,"x_min":0,"x_max":0,"o":"m -192 -283 b -43 -172 -99 -283 -43 -240 b -167 -67 -43 -103 -90 -67 b -208 -71 -179 -68 -193 -68 l -183 0 l -226 0 l -258 -119 b -235 -118 -250 -118 -243 -118 b -133 -172 -175 -118 -133 -133 b -217 -232 -133 -214 -160 -232 b -319 -197 -247 -232 -281 -221 l -319 -261 b -192 -283 -283 -276 -240 -283 z "},"–":{"ha":751,"x_min":0,"x_max":0,"o":"m 714 285 l 714 365 l 38 365 l 38 285 z "},"—":{"ha":1389,"x_min":0,"x_max":0,"o":"m 1389 285 l 1389 365 l 0 365 l 0 285 z "},"‘":{"ha":313,"x_min":0,"x_max":0,"o":"m 203 731 l 203 861 l 154 861 b 150 879 151 867 150 872 b 233 1028 150 944 206 1003 b 236 1057 243 1036 244 1057 b 72 861 228 1057 72 992 l 72 731 l 203 731 z "},"’":{"ha":311,"x_min":0,"x_max":0,"o":"m 111 1057 l 111 926 l 160 926 b 164 910 163 921 164 915 b 82 760 164 844 110 786 b 79 731 72 751 69 731 b 242 926 88 731 242 796 l 242 1057 l 111 1057 z "},"‚":{"ha":313,"x_min":0,"x_max":0,"o":"m 111 126 l 111 -4 l 160 -4 b 164 -21 163 -10 164 -15 b 82 -171 164 -86 110 -144 b 79 -200 72 -179 69 -200 b 242 -4 88 -200 242 -135 l 242 126 l 111 126 z "},"“":{"ha":510,"x_min":0,"x_max":0,"o":"m 399 843 l 350 843 b 346 860 347 849 346 854 b 429 1010 346 926 401 983 b 432 1039 439 1018 442 1039 b 269 843 424 1039 269 974 l 269 713 l 399 713 l 399 843 z m 204 713 l 204 843 l 154 843 b 150 860 153 849 150 854 b 233 1010 150 926 206 983 b 236 1039 243 1018 246 1039 b 74 843 228 1039 74 974 l 74 713 l 204 713 z "},"”":{"ha":507,"x_min":0,"x_max":0,"o":"m 113 908 l 161 908 b 165 892 164 903 165 897 b 82 742 165 825 110 768 b 79 713 72 733 69 713 b 242 908 88 713 242 778 l 242 1039 l 113 1039 l 113 908 z m 307 1039 l 307 908 l 357 908 b 361 892 358 903 361 897 b 278 742 361 825 306 768 b 275 713 268 733 265 713 b 438 908 283 713 438 778 l 438 1039 l 307 1039 z "},"„":{"ha":510,"x_min":0,"x_max":0,"o":"m 113 6 l 161 6 b 165 -11 164 0 165 -6 b 82 -161 165 -78 110 -135 b 79 -190 72 -169 69 -190 b 242 6 88 -190 242 -125 l 242 136 l 113 136 l 113 6 z m 307 136 l 307 6 l 357 6 b 361 -11 358 0 361 -6 b 278 -161 361 -78 306 -135 b 275 -190 268 -169 265 -190 b 438 6 283 -190 438 -125 l 438 136 l 307 136 z "},"†":{"ha":688,"x_min":0,"x_max":0,"o":"m 357 -183 b 433 478 360 49 386 269 b 358 665 388 524 363 586 b 481 626 401 660 442 647 b 572 589 528 601 558 589 b 640 679 615 589 640 629 b 567 768 640 733 610 768 b 479 729 554 768 525 756 b 358 693 442 708 403 697 b 396 814 363 736 375 776 b 433 907 421 863 433 893 b 344 975 433 949 393 975 b 254 901 290 975 254 946 b 293 814 254 889 267 860 b 329 693 314 778 326 738 b 208 731 288 697 247 710 b 115 768 161 756 129 768 b 49 679 74 768 49 728 b 121 589 49 625 76 589 b 208 628 135 589 164 603 b 329 665 246 649 286 661 b 254 478 325 586 300 524 b 332 -183 303 269 329 49 z "},"‡":{"ha":688,"x_min":0,"x_max":0,"o":"m 343 -183 b 433 -115 393 -183 433 -158 b 396 -24 433 -101 421 -71 b 358 99 375 15 363 56 b 478 61 401 94 442 82 b 565 24 524 36 553 24 b 639 113 610 24 639 57 b 572 203 639 163 614 203 b 479 165 557 203 526 190 b 358 126 442 144 400 131 b 433 396 361 228 386 318 b 358 665 386 474 361 563 b 479 626 400 660 442 647 b 572 589 526 601 557 589 b 639 679 614 589 639 629 b 565 768 639 733 610 768 b 478 729 553 768 524 756 b 358 693 442 708 401 697 b 396 814 363 736 375 776 b 433 907 421 863 433 893 b 343 975 433 949 393 975 b 254 901 289 975 254 946 b 292 814 254 889 267 860 b 329 693 313 778 325 738 b 207 731 286 697 246 710 b 115 768 160 756 129 768 b 47 679 72 768 47 728 b 121 589 47 625 76 589 b 208 628 133 589 163 603 b 329 665 246 649 286 661 b 254 396 325 563 300 474 b 329 126 300 318 325 228 b 208 164 286 131 246 143 b 121 203 163 189 133 203 b 47 113 76 203 47 167 b 115 24 47 64 72 24 b 207 61 129 24 160 36 b 329 99 246 82 286 94 b 292 -22 325 54 313 14 b 254 -110 267 -68 254 -97 b 343 -183 254 -154 289 -183 z "},"•":{"ha":694,"x_min":0,"x_max":0,"o":"m 347 286 b 489 344 401 286 449 306 b 549 488 528 385 549 432 b 489 628 549 542 528 589 b 347 688 450 668 403 688 b 206 629 292 688 244 668 b 146 488 167 590 146 543 b 204 344 146 432 165 383 b 347 286 243 306 290 286 z "},"…":{"ha":2844,"x_min":0,"x_max":0,"o":"m 69 0 l 200 0 l 200 131 l 69 131 l 69 0 z m 1018 0 l 1149 0 l 1149 131 l 1018 131 l 1018 0 z m 1967 0 l 2097 0 l 2097 131 l 1967 131 l 1967 0 z "},"‹":{"ha":428,"x_min":0,"x_max":0,"o":"m 360 119 l 360 144 l 221 325 l 360 506 l 360 531 l 350 531 l 118 325 l 350 119 z "},"›":{"ha":428,"x_min":0,"x_max":0,"o":"m 78 119 l 310 325 l 78 531 l 68 531 l 68 506 l 207 325 l 68 144 l 68 119 z "},"⁄":{"ha":232,"x_min":0,"x_max":0,"o":"m -174 -19 l 463 971 l 406 971 l -232 -19 z "},"∕":{"ha":232,"x_min":0,"x_max":0,"o":"m -174 -19 l 463 971 l 406 971 l -232 -19 z "},"₣":{"ha":675,"x_min":0,"x_max":0,"o":"m 121 346 l 0 346 l 0 296 l 121 296 l 121 1 l 251 1 l 251 296 l 350 296 l 350 346 l 251 346 l 251 522 l 675 522 l 675 556 l 251 556 l 251 979 l 675 979 l 675 1011 l 121 1011 z "},"₤":{"ha":688,"x_min":0,"x_max":0,"o":"m 565 0 l 635 157 l 601 157 b 474 68 575 97 532 68 l 201 68 b 311 322 274 164 311 250 b 288 415 311 356 303 388 l 504 415 l 504 457 l 265 457 b 249 497 260 469 254 483 l 492 497 l 492 538 l 235 538 b 211 703 219 586 213 642 b 271 868 211 769 232 825 b 397 935 310 913 353 935 b 574 844 510 935 568 899 l 599 844 l 599 954 b 524 976 599 963 574 971 b 399 986 474 983 432 986 b 188 904 314 986 243 958 b 104 668 132 849 104 771 b 128 538 104 629 113 586 l 51 538 l 51 497 l 143 497 l 161 457 l 64 457 l 64 415 l 181 415 l 182 414 b 204 318 197 385 204 353 b 78 33 204 236 163 142 l 78 0 z "},"₧":{"ha":1289,"x_min":0,"x_max":0,"o":"m 310 1007 l 131 1007 l 33 1007 l 0 1007 l 0 975 l 0 31 l 0 -3 l 131 -3 l 131 31 l 131 356 l 131 389 l 310 389 b 619 699 481 389 619 528 b 310 1007 619 869 481 1007 z m 489 654 b 257 421 489 525 385 421 l 131 421 l 131 486 l 131 519 l 131 975 l 257 975 b 489 742 385 975 489 871 l 489 654 z m 1199 1007 l 874 1007 l 840 1007 l 808 1007 l 743 1007 l 644 1007 l 417 1007 l 417 975 l 624 975 l 644 975 l 710 975 l 743 975 l 743 617 l 743 31 l 743 -3 l 874 -3 l 874 31 l 874 356 l 874 454 l 874 486 l 874 519 l 874 585 l 874 910 l 874 975 l 939 975 l 992 975 l 1199 975 l 1199 1007 z m 1192 324 b 1038 471 1093 389 1038 381 b 1126 551 1038 539 1093 551 b 1224 454 1192 551 1224 519 l 1256 454 l 1256 551 b 1114 585 1224 579 1158 585 b 963 454 1031 585 963 529 b 1061 258 963 364 986 303 b 1224 128 1136 213 1224 193 b 1093 31 1224 75 1153 31 b 963 161 1028 31 963 96 l 931 161 l 931 31 b 931 31 931 53 931 31 b 1111 -3 996 -3 1063 -3 b 1289 161 1208 -3 1289 93 b 1192 324 1289 258 1264 275 z "},"€":{"ha":932,"x_min":0,"x_max":0,"o":"m 163 631 l 0 631 l 0 572 l 153 572 b 150 507 151 551 150 529 b 153 450 150 488 151 468 l 0 450 l 0 392 l 161 392 b 210 253 171 342 188 296 b 369 69 250 176 303 115 b 590 1 435 24 508 1 b 786 54 664 1 729 19 b 932 197 843 89 892 138 l 900 197 b 776 78 868 146 826 107 b 622 35 725 49 674 35 b 381 174 528 35 447 81 b 290 392 335 236 304 310 l 571 392 l 571 450 l 283 450 b 281 507 282 468 281 488 b 283 572 281 529 282 551 l 571 572 l 571 631 l 292 631 b 381 842 307 710 336 779 b 622 979 447 933 528 979 b 693 969 646 979 669 976 b 819 876 746 953 788 922 b 867 725 851 831 867 781 l 867 686 l 900 686 l 900 881 b 756 974 860 917 811 947 b 590 1011 699 999 644 1011 b 369 943 508 1011 435 989 b 210 761 303 897 250 838 b 163 631 189 719 172 676 z "},"№":{"ha":1263,"x_min":0,"x_max":0,"o":"m 992 818 b 722 547 843 818 722 697 b 992 278 722 399 843 278 b 1263 547 1142 278 1263 399 b 992 818 1263 697 1142 818 z m 992 307 b 842 547 910 307 842 415 b 992 788 842 681 910 788 b 1142 547 1075 788 1142 681 b 992 307 1142 415 1075 307 z m 1175 139 l 1175 201 l 825 201 l 825 139 z m 651 1007 l 618 1007 l 618 975 l 618 813 l 618 243 l 138 1007 l 32 1007 l 0 1007 l 0 975 l 0 31 l 0 -3 l 32 -3 l 32 31 l 32 389 l 32 931 l 618 -1 l 618 -3 l 639 -35 l 651 -35 l 651 -3 l 651 192 l 651 714 l 651 975 l 651 1007 z "},"™":{"ha":867,"x_min":0,"x_max":0,"o":"m 410 1010 l 263 1010 l 247 1010 l 232 1010 l 203 1010 l 158 1010 l 56 1010 l 56 994 l 150 994 l 158 994 l 189 994 l 203 994 l 203 833 l 203 568 l 203 553 l 263 553 l 263 568 l 263 715 l 263 760 l 263 774 l 263 789 l 263 818 l 263 965 l 263 994 l 292 994 l 315 994 l 410 994 l 410 1010 z m 763 1011 l 746 1011 l 619 735 l 492 1011 l 476 1011 l 447 1011 l 432 1011 l 432 997 l 432 569 l 432 556 l 447 556 l 447 569 l 447 703 l 447 969 l 514 821 l 594 644 l 621 703 l 628 717 l 742 965 l 742 703 l 742 569 l 742 556 l 800 556 l 800 569 l 800 746 l 800 776 l 800 790 l 800 806 l 800 850 l 800 997 l 800 1011 l 763 1011 z "},"∂":{"ha":689,"x_min":0,"x_max":0,"o":"m 369 7 b 283 43 340 7 311 19 b 161 311 215 97 172 206 b 157 364 158 328 157 346 b 168 471 157 397 161 433 b 310 639 190 579 250 635 b 404 606 343 639 368 632 b 531 278 476 547 531 413 b 465 56 531 189 507 103 b 369 7 435 21 400 7 z m 344 -17 b 489 28 394 -17 443 -1 b 636 324 586 90 636 210 b 493 796 636 510 589 667 b 144 989 399 925 283 989 l 144 953 b 524 592 307 940 449 801 b 344 664 472 639 403 664 b 201 619 294 664 247 649 b 53 324 103 558 53 438 b 90 153 53 264 65 207 b 344 -17 144 40 247 -17 z "},"∆":{"ha":733,"x_min":0,"x_max":0,"o":"m 617 83 l 74 83 l 349 810 z m 728 0 l 371 972 l 4 0 z "},"∏":{"ha":1026,"x_min":0,"x_max":0,"o":"m 413 -283 l 413 -249 l 347 -249 b 278 -89 300 -249 278 -196 l 278 779 b 347 939 278 886 300 939 l 681 939 b 750 779 726 939 750 886 l 750 -89 b 681 -249 750 -196 726 -249 l 615 -249 l 615 -283 l 994 -283 l 994 -249 l 929 -249 b 860 -89 883 -249 860 -196 l 860 779 b 929 939 860 886 883 939 l 994 939 l 994 972 l 32 972 l 32 939 l 97 939 b 168 779 144 939 168 886 l 168 -89 b 97 -249 168 -196 144 -249 l 32 -249 l 32 -283 z "},"∑":{"ha":818,"x_min":0,"x_max":0,"o":"m 706 -282 l 776 -125 l 743 -125 b 614 -249 715 -207 674 -249 l 183 -249 l 718 372 l 286 939 l 614 939 b 743 815 674 939 715 897 l 776 815 l 706 972 l 82 972 l 82 939 b 153 900 110 939 133 926 l 603 318 l 153 -212 b 82 -249 133 -236 110 -249 l 82 -282 z "},"−":{"ha":688,"x_min":0,"x_max":0,"o":"m 629 439 l 629 533 l 628 533 l 58 533 l 58 439 z "},"√":{"ha":688,"x_min":0,"x_max":0,"o":"m 122 0 l 665 1099 l 715 1099 l 715 1139 l 613 1139 l 119 142 l 61 267 l 11 243 z "},"∞":{"ha":688,"x_min":0,"x_max":0,"o":"m 471 239 b 590 310 514 239 554 263 b 644 486 626 357 644 417 b 594 663 644 557 628 615 b 471 733 560 710 519 733 b 306 561 389 733 322 656 b 179 693 281 649 239 693 b 44 486 104 693 44 600 b 179 281 44 357 108 281 b 306 411 235 281 276 324 b 378 279 322 350 346 306 b 471 239 410 251 440 239 z m 463 329 b 375 365 439 329 410 342 b 317 465 342 389 321 422 b 389 607 331 536 354 583 b 494 644 422 632 457 644 b 632 508 574 644 631 592 b 575 383 632 461 613 419 b 463 329 538 347 500 329 z m 163 354 b 54 467 94 354 56 410 b 190 617 54 540 113 617 b 297 513 243 617 285 588 b 242 385 283 447 265 406 b 163 354 219 365 193 354 z "},"∫":{"ha":451,"x_min":0,"x_max":0,"o":"m -8 -190 b 151 -62 49 -190 101 -147 b 239 222 201 24 231 118 l 289 743 b 322 989 290 836 301 919 b 401 1094 343 1060 368 1094 b 443 1081 414 1094 428 1090 b 467 1036 458 1071 467 1056 l 492 1036 l 492 1144 b 451 1164 492 1157 478 1164 b 292 1033 394 1164 342 1121 b 201 743 243 947 213 850 l 196 700 l 147 203 b 121 -11 144 133 135 61 b 43 -121 106 -85 79 -121 b -1 -107 29 -121 15 -117 b -25 -62 -17 -97 -24 -82 l -49 -62 l -49 -171 b -8 -190 -49 -183 -35 -190 z "},"≈":{"ha":688,"x_min":0,"x_max":0,"o":"m 64 496 b 151 572 97 533 126 560 b 225 590 178 585 201 590 b 344 558 251 590 292 579 b 464 525 397 536 438 525 b 543 542 490 525 517 531 b 626 608 569 554 597 576 l 626 714 b 538 638 593 676 564 651 b 464 619 513 625 488 619 b 347 653 440 619 400 631 b 225 686 294 675 253 686 b 147 668 200 686 174 681 b 64 601 121 657 93 635 z m 64 260 b 151 336 97 297 126 324 b 225 354 178 349 201 354 b 344 322 251 354 292 343 b 464 289 397 300 438 289 b 543 306 490 289 517 294 b 626 372 569 318 597 340 l 626 478 b 538 403 593 440 564 415 b 464 383 513 389 488 383 b 347 417 440 383 400 394 b 225 450 294 439 253 450 b 147 433 200 450 174 444 b 64 365 121 421 93 399 z "},"≤":{"ha":507,"x_min":0,"x_max":0,"o":"m 56 471 l 56 517 l 424 781 l 424 685 l 163 500 l 163 493 l 424 301 l 424 204 l 56 471 z m 560 13 l 560 107 l 558 107 l -11 107 l -11 13 z "},"≥":{"ha":507,"x_min":0,"x_max":0,"o":"m 451 514 l 451 467 l 83 204 l 83 299 l 344 483 l 344 490 l 83 682 l 83 781 l 451 514 z m 532 -1 l 532 93 l 531 93 l -39 93 l -39 -1 z "},"　":{"ha":1010,"x_min":0,"x_max":0,"o":"m 922 261 l 661 1043 l 640 1043 l 451 521 b 0 131 122 510 0 351 b 325 -228 0 -32 131 -228 b 603 -64 511 -228 574 -140 l 563 -64 b 324 -189 521 -137 488 -189 b 32 131 179 -186 32 -32 b 439 488 32 346 178 474 l 275 33 l 263 1 l 264 1 l 299 1 l 310 33 l 474 489 b 489 489 479 489 483 489 l 597 489 l 619 489 l 685 489 l 710 489 l 783 268 l 786 261 l 872 1 l 1010 1 l 922 261 z m 685 522 l 619 522 l 489 522 l 486 522 l 597 828 l 699 522 l 685 522 z "},"、":{"ha":782,"x_min":0,"x_max":0,"o":"m 1303 -224 b 1144 -260 1246 -264 1144 -260 b 732 38 958 -260 792 -140 l 399 1043 l 378 1043 l 13 33 l 0 0 l 35 0 l 36 0 l 47 33 l 211 489 l 447 489 l 608 4 b 1035 -301 668 -172 847 -301 b 1333 -226 1035 -301 1276 -307 l 1303 -224 z m 224 522 l 335 828 l 436 522 l 224 522 z "},"。":{"ha":881,"x_min":0,"x_max":0,"o":"m 617 535 b 639 544 622 538 629 542 b 683 572 654 553 669 563 b 685 574 683 572 683 574 b 706 593 692 579 699 586 b 708 596 707 593 708 594 b 726 615 715 601 721 608 b 731 621 728 617 729 619 b 744 640 736 628 740 633 b 750 650 746 643 747 647 b 758 668 753 656 756 663 b 764 682 761 674 763 678 b 769 699 767 688 768 693 b 775 718 772 706 774 713 b 778 732 775 722 776 728 b 779 767 779 743 779 754 b 535 1011 779 901 671 1011 l 454 1011 l 356 1011 l 324 1011 l 226 1011 l 226 978 l 226 383 l 226 350 b 0 65 96 315 0 189 l 0 33 b 392 -293 0 -111 164 -293 l 424 -293 b 881 164 653 -293 881 -97 b 617 535 881 367 763 490 z m 356 978 l 454 978 l 483 978 b 650 813 575 978 650 904 l 650 721 b 646 692 650 711 649 701 b 644 683 646 689 646 686 b 636 657 643 675 640 665 b 633 651 636 656 635 653 b 624 633 631 644 628 639 b 618 624 622 631 619 626 b 607 611 614 619 611 615 b 592 596 603 606 597 600 b 585 590 589 593 586 592 b 571 581 579 586 575 583 b 483 554 546 564 515 554 l 358 554 l 356 554 l 356 588 l 356 978 z m 392 -260 b 33 33 196 -260 33 -111 l 33 65 b 226 314 33 194 135 282 l 226 279 l 226 33 l 226 0 l 356 0 l 358 0 l 358 33 l 356 33 l 356 289 l 356 321 b 531 196 449 307 503 261 l 571 196 b 356 357 539 283 464 347 l 356 390 l 356 489 l 356 522 l 358 522 b 750 131 557 522 750 424 b 392 -260 750 -162 589 -260 z "},"〃":{"ha":879,"x_min":0,"x_max":0,"o":"m 521 -256 b 129 378 307 -256 129 42 b 521 974 129 714 307 974 b 608 956 547 974 583 964 b 814 601 728 917 814 788 l 847 601 l 847 713 l 847 825 b 493 1011 749 936 615 1011 b 0 378 218 1011 0 738 b 493 -293 0 18 218 -293 b 879 -32 658 -293 789 -185 l 847 -32 b 521 -256 776 -160 638 -256 z "},"〄":{"ha":976,"x_min":0,"x_max":0,"o":"m 488 1011 l 358 1011 l 228 1011 l 225 1011 l 225 978 l 225 383 l 225 350 b 0 65 96 315 0 189 l 0 33 b 390 -293 0 -111 163 -293 b 976 424 618 -293 976 -64 b 488 1011 976 782 749 1011 z m 390 -260 b 32 33 194 -260 32 -111 l 32 65 b 225 314 32 194 133 282 l 225 279 l 225 33 l 225 0 l 356 0 l 358 0 l 358 1 l 358 33 l 358 321 b 529 196 449 306 503 260 l 569 196 b 358 357 539 283 464 346 l 358 522 l 358 554 l 358 718 l 358 978 l 457 978 b 847 424 749 978 847 653 b 390 -260 847 33 651 -260 z "},"々":{"ha":618,"x_min":0,"x_max":0,"o":"m 1043 -162 b 782 -260 1010 -194 883 -260 b 456 -97 656 -260 619 -194 b 133 0 358 -32 239 -21 l 131 0 l 131 33 l 131 164 l 131 424 l 131 489 l 131 522 l 163 522 l 196 522 l 244 522 l 326 522 l 392 522 l 554 522 l 554 554 l 392 554 l 326 554 l 244 554 l 196 554 l 163 554 l 131 554 l 131 978 l 228 978 l 390 978 l 554 978 l 554 1011 l 131 1011 l 0 1011 l 0 978 l 0 33 l 0 0 l 36 -8 b 424 -193 196 -32 303 -99 b 782 -293 554 -290 699 -293 b 1075 -162 879 -293 1010 -228 l 1043 -162 z "},"〆":{"ha":910,"x_min":0,"x_max":0,"o":"m 551 978 l 747 978 l 910 978 l 910 1011 l 457 1011 b 0 619 163 1011 0 847 b 326 261 0 457 131 261 b 356 263 336 261 346 261 l 356 33 l 356 1 l 489 1 l 489 33 l 489 294 b 603 424 554 326 585 378 l 563 424 b 489 335 542 388 522 357 l 489 522 l 519 522 l 551 522 l 600 522 l 682 522 l 747 522 l 910 522 l 910 554 l 747 554 l 682 554 l 600 554 l 551 554 l 519 554 l 489 554 l 486 978 b 488 978 486 978 488 978 l 551 978 z m 356 301 b 324 300 346 300 335 300 b 33 619 179 303 33 457 b 356 968 33 811 147 932 l 356 301 z "},"〇":{"ha":782,"x_min":0,"x_max":0,"o":"m 586 554 l 521 554 l 521 522 l 586 522 l 651 522 l 651 261 l 651 138 l 651 94 b 472 33 597 56 533 33 b 131 506 283 33 131 244 b 472 978 131 767 283 978 b 542 968 496 978 519 975 b 710 782 629 943 690 869 l 749 782 l 749 864 l 749 913 b 440 1011 685 978 554 1011 b 0 506 197 1011 0 785 b 440 0 0 226 197 0 b 651 21 529 0 599 10 l 654 -97 b 492 -260 654 -169 589 -260 b 328 -194 447 -260 351 -229 l 328 -228 b 524 -293 361 -260 426 -293 b 782 6 724 -293 782 -194 l 782 65 l 782 261 l 782 326 l 782 522 l 782 554 l 586 554 z "},"〈":{"ha":1075,"x_min":0,"x_max":0,"o":"m 946 1011 l 946 978 l 946 685 l 946 554 l 913 554 l 881 554 l 847 554 l 619 554 l 586 554 l 554 554 l 522 554 l 522 685 l 522 978 l 522 1011 l 392 1011 l 392 978 l 392 551 b 0 131 139 524 0 342 b 326 -228 0 -32 131 -228 b 603 -64 511 -228 575 -140 l 563 -64 b 324 -189 521 -137 488 -189 b 33 131 179 -186 33 -32 b 392 515 33 332 160 482 l 392 33 l 392 0 l 522 0 l 522 33 l 522 424 l 522 489 l 522 522 l 554 522 l 586 522 l 619 522 l 847 522 l 881 522 l 913 522 l 946 522 l 946 489 l 946 424 l 946 33 l 946 0 l 1075 0 l 1075 33 l 1075 978 l 1075 1011 l 946 1011 z "},"〉":{"ha":131,"x_min":0,"x_max":0,"o":"m 131 33 l 131 424 l 131 489 l 131 522 l 131 554 l 131 653 l 131 978 l 131 1011 l 0 1011 l 0 978 l 0 33 l 0 0 l 131 0 l 131 33 z "},"【":{"ha":815,"x_min":0,"x_max":0,"o":"m 685 1011 l 685 978 l 685 750 l 685 489 l 685 326 l 685 164 b 358 -260 685 -64 588 -260 b 33 65 229 -260 33 -97 b 457 424 33 294 196 424 l 457 457 b 0 65 164 457 0 294 b 358 -293 0 -97 164 -293 b 815 164 685 -293 815 -64 l 815 326 l 815 489 l 815 522 l 815 554 l 815 653 l 815 847 l 815 978 l 815 1011 l 685 1011 z "},"】":{"ha":860,"x_min":0,"x_max":0,"o":"m 1419 -162 b 1158 -260 1386 -194 1260 -260 b 540 392 1064 -260 899 -228 l 357 710 l 522 881 l 522 882 l 615 978 l 647 1011 l 646 1011 l 601 1011 l 600 1011 l 569 978 l 131 519 l 131 522 l 131 554 l 131 653 l 131 815 l 131 978 l 131 1011 l 0 1011 l 0 978 l 0 385 l 0 338 l 0 33 l 0 0 l 131 0 l 131 33 l 131 294 l 131 424 l 131 472 l 263 610 l 410 360 b 1158 -293 768 -260 996 -293 b 1451 -162 1257 -293 1386 -228 l 1419 -162 z "},"〒":{"ha":489,"x_min":0,"x_max":0,"o":"m 1043 -162 b 782 -260 1010 -194 883 -260 b 456 -97 656 -260 619 -194 b 132 0 358 -32 239 -21 l 131 0 l 131 33 l 131 164 l 131 294 l 131 424 l 131 489 l 131 522 l 131 554 l 131 653 l 131 978 l 131 1011 l 0 1011 l 0 294 l 0 33 l 0 0 l 36 -8 b 424 -193 196 -32 303 -99 b 782 -293 554 -290 699 -293 b 1075 -162 879 -293 1010 -228 l 1043 -162 z "},"〓":{"ha":878,"x_min":0,"x_max":0,"o":"m 1206 -185 b 938 -260 1169 -215 1038 -268 b 425 347 849 -251 697 -208 l 431 358 l 431 360 l 683 908 l 683 326 l 683 33 l 683 0 l 814 0 l 814 33 l 814 424 l 814 489 l 814 522 l 814 554 l 814 653 l 814 978 l 814 1011 l 731 1011 l 694 1011 l 406 390 b 379 446 396 408 388 426 l 149 968 l 132 1011 l 131 1011 l 97 1011 l 32 1011 l 0 1011 l 0 978 l 0 33 l 0 0 l 32 0 l 32 33 l 32 326 l 32 913 l 32 917 l 33 914 l 32 913 l 246 425 b 933 -292 547 -224 772 -276 b 1238 -187 1032 -300 1167 -247 l 1206 -185 z "},"〔":{"ha":856,"x_min":0,"x_max":0,"o":"m 1335 -185 b 1067 -260 1300 -215 1167 -279 b 651 186 982 -242 836 -76 l 651 194 l 651 718 l 651 978 l 651 1011 l 618 1011 l 618 978 l 618 815 l 618 233 b 590 274 610 247 600 260 l 138 1011 l 32 1011 l 0 1011 l 0 978 l 0 33 l 0 1 l 32 1 l 32 33 l 32 392 l 32 935 l 136 772 b 625 8 350 400 506 163 l 651 -32 l 651 -24 b 1064 -292 856 -276 949 -272 b 1368 -187 1160 -308 1297 -247 l 1335 -185 z "},"〕":{"ha":1010,"x_min":0,"x_max":0,"o":"m 504 1011 b 0 506 225 1011 0 785 b 504 1 0 226 225 1 b 1010 506 783 1 1010 226 b 504 1011 1010 785 783 1011 z m 504 33 b 129 506 297 33 129 244 b 504 978 129 767 297 978 b 879 506 711 978 879 767 b 504 33 879 244 711 33 z m 418 506 l 504 375 l 592 506 l 504 636 l 418 506 z "},"〖":{"ha":1043,"x_min":0,"x_max":0,"o":"m 733 1011 l 554 1011 l 457 1011 l 424 1011 l 424 1010 b 0 619 151 997 0 839 b 293 264 0 467 117 283 l 293 303 b 33 619 160 325 33 468 b 424 975 33 831 172 957 l 424 33 l 424 1 l 554 1 l 554 33 l 554 360 l 554 392 l 733 392 b 1043 701 904 392 1043 531 b 733 1011 1043 872 904 1011 z m 913 657 b 679 424 913 529 808 424 l 554 424 l 554 489 l 554 522 l 554 978 l 679 978 b 913 746 808 978 913 874 l 913 657 z "},"〗":{"ha":1071,"x_min":0,"x_max":0,"o":"m 1465 -162 b 1206 -260 1433 -194 1307 -260 b 879 -97 1079 -260 1042 -194 b 556 3 782 -32 661 -18 b 1010 506 810 29 1010 244 b 504 1011 1010 785 783 1011 b 0 506 226 1011 0 785 b 396 13 0 264 169 63 b 401 11 397 13 400 11 b 406 11 403 11 404 11 b 847 -193 563 -15 729 -100 b 1206 -293 976 -290 1122 -293 b 1499 -162 1303 -293 1433 -228 l 1465 -162 z m 131 506 b 504 978 131 767 297 978 b 879 506 711 978 879 767 b 504 33 879 244 711 33 b 131 506 297 33 131 244 z "},"〘":{"ha":769,"x_min":0,"x_max":0,"o":"m 1322 -162 b 1061 -260 1289 -194 1163 -260 b 622 106 985 -260 860 -237 l 458 365 b 442 392 453 374 447 382 l 428 415 b 619 701 540 463 619 572 b 310 1011 619 872 481 1011 l 131 1011 l 33 1011 l 0 1011 l 0 978 l 0 33 l 0 1 l 131 1 l 131 33 l 131 360 l 131 392 l 288 392 l 324 339 b 1061 -293 675 -260 900 -293 b 1354 -162 1158 -293 1289 -228 l 1322 -162 z m 131 424 l 131 489 l 131 522 l 131 978 l 257 978 b 489 746 385 978 489 874 l 489 657 b 257 424 489 529 385 424 l 131 424 z "},"〙":{"ha":881,"x_min":0,"x_max":0,"o":"m 586 554 b 392 815 392 653 392 718 b 522 978 392 913 449 978 b 717 750 651 978 717 881 l 750 750 l 750 946 b 517 1011 685 1011 564 1011 b 293 750 392 1008 293 875 b 489 457 293 588 358 522 b 492 456 489 457 490 456 b 750 131 629 386 750 286 b 392 -260 750 -162 589 -260 b 33 33 196 -260 33 -111 l 33 65 b 294 328 33 194 158 325 b 531 196 424 326 503 261 l 569 196 b 293 360 539 283 453 360 b 0 65 107 358 0 189 l 0 33 b 392 -293 0 -111 163 -293 l 424 -293 b 881 164 651 -293 881 -97 b 586 554 881 367 742 481 z "},"〠":{"ha":1172,"x_min":0,"x_max":0,"o":"m 847 1011 l 814 1011 l 782 1011 l 717 1011 l 619 1011 l 390 1011 l 390 1007 b 0 619 139 985 0 831 b 326 261 0 457 131 261 b 603 424 511 261 574 349 l 563 424 b 324 300 521 351 488 300 b 32 619 179 303 32 457 b 489 978 32 847 196 978 l 599 978 l 619 978 l 685 978 l 717 978 l 717 619 l 717 33 l 717 1 l 847 1 l 847 33 l 847 360 l 847 457 l 847 489 l 847 522 l 847 588 l 847 913 l 847 978 l 913 978 l 965 978 l 1172 978 l 1172 1011 l 847 1011 z "},"〡":{"ha":1092,"x_min":0,"x_max":0,"o":"m 1058 1011 l 1058 978 l 1058 653 l 1058 360 b 799 33 1058 131 928 33 b 540 301 689 33 560 89 b 668 424 611 335 651 381 l 635 424 b 539 336 615 389 585 358 b 538 360 538 343 538 351 l 538 782 l 538 978 l 538 1011 l 407 1011 l 407 1008 b 0 619 144 992 0 835 b 326 261 0 457 131 261 b 415 267 358 261 388 264 b 765 1 450 75 600 1 b 1092 360 993 1 1092 131 l 1092 653 l 1092 978 l 1092 1011 l 1058 1011 z m 324 300 b 33 619 179 306 33 457 b 407 974 33 825 165 951 l 407 782 l 407 360 b 410 303 407 339 408 321 b 324 300 385 300 356 299 z "},"〢":{"ha":1235,"x_min":0,"x_max":0,"o":"m 1235 1011 l 1233 1011 l 1200 1011 l 1199 1011 l 1197 1011 l 1186 978 l 1188 978 l 1057 619 l 1057 618 l 900 183 l 779 546 b 711 765 757 618 735 689 b 618 1011 711 765 639 971 l 617 1013 b 343 1254 532 1171 432 1224 b 0 1231 243 1286 83 1271 l 31 1219 b 299 1229 72 1240 161 1271 b 492 1001 353 1213 418 1157 l 499 978 l 571 765 l 569 765 l 660 496 b 768 169 701 365 735 261 l 836 -32 l 857 -32 l 947 219 l 949 219 l 1224 978 l 1235 1010 l 1235 1011 z "},"〣":{"ha":1290,"x_min":0,"x_max":0,"o":"m 1432 -218 b 1164 -228 1390 -237 1301 -269 b 971 1 1110 -211 1044 -156 b 922 144 953 51 938 99 l 1222 978 l 1235 1011 l 1200 1011 l 1189 978 l 906 194 b 719 758 821 444 768 618 l 799 978 l 811 1011 l 776 1011 l 765 978 l 703 807 b 679 872 694 829 688 851 b 618 1011 660 925 639 971 l 617 1013 b 343 1254 531 1171 431 1224 b 0 1231 243 1286 82 1271 l 31 1219 b 299 1229 72 1240 161 1271 b 492 1001 353 1213 418 1157 l 499 978 l 614 633 b 626 596 618 621 622 608 l 478 183 l 213 978 l 201 1011 l 64 1011 l 75 978 l 414 -32 l 435 -32 l 643 546 b 783 131 700 371 740 242 b 843 -8 801 76 822 32 b 843 -8 843 -8 843 -8 l 844 -8 b 1119 -251 931 -168 1031 -222 b 1463 -229 1218 -285 1379 -268 l 1432 -218 z "},"〤":{"ha":1258,"x_min":0,"x_max":0,"o":"m 1642 -100 b 1379 -151 1604 -126 1521 -172 b 1153 43 1324 -144 1250 -100 b 1082 176 1128 89 1104 135 l 1057 222 b 889 549 990 351 936 457 l 1186 974 l 1208 1007 l 1168 1007 l 1146 974 l 872 582 b 785 750 840 644 813 700 l 761 796 b 726 856 750 815 738 836 b 644 983 700 906 672 947 l 643 985 b 335 1178 533 1126 426 1164 b 0 1101 232 1194 75 1154 l 32 1096 b 296 1147 69 1122 153 1167 b 521 953 350 1140 424 1096 l 532 932 l 701 610 b 719 575 707 597 713 586 l 743 528 b 782 451 757 501 769 476 l 489 31 l 465 -1 l 506 -1 l 528 31 l 799 418 b 947 140 854 308 901 219 b 1028 14 974 90 1001 49 b 1029 13 1028 14 1029 13 b 1339 -183 1139 -131 1247 -168 b 1674 -107 1442 -200 1599 -158 l 1642 -100 z "},"〥":{"ha":1279,"x_min":0,"x_max":0,"o":"m 1239 1011 l 1217 978 l 944 571 l 896 636 b 725 889 831 736 776 818 b 629 1007 692 936 660 975 b 629 1008 629 1007 629 1008 b 311 1164 507 1136 400 1160 b 0 1049 210 1168 67 1110 l 32 1046 b 276 1129 64 1076 139 1132 b 517 963 331 1128 393 1124 b 825 522 681 738 746 644 l 825 33 l 825 1 l 956 1 l 956 33 l 956 360 l 956 457 l 956 489 l 956 522 l 1256 978 l 1279 1011 l 1239 1011 z "},"〦":{"ha":714,"x_min":0,"x_max":0,"o":"m 1142 -131 b 847 -260 1057 -221 949 -260 b 522 -97 721 -260 685 -194 b 182 1 424 -32 289 -21 l 275 235 l 586 1011 l 554 1011 l 446 1011 l 33 1011 l 0 1011 l 0 978 l 174 978 l 231 978 l 433 978 l 40 1 b 489 -193 200 -22 368 -99 b 847 -293 619 -290 764 -293 b 1172 -129 944 -293 1107 -221 l 1142 -131 z "}}}
